<mxfile host="65bd71144e">
    <diagram id="J5jpz5xyzI82aBQQgfmp" name="Customer">
        <mxGraphModel dx="684" dy="552" grid="0" gridSize="10" guides="1" tooltips="1" connect="1" arrows="1" fold="1" page="1" pageScale="1" pageWidth="850" pageHeight="1100" math="0" shadow="0">
            <root>
                <mxCell id="w7sXCsC1ERtZY_K8VD5S-0"/>
                <mxCell id="w7sXCsC1ERtZY_K8VD5S-1" parent="w7sXCsC1ERtZY_K8VD5S-0"/>
                <mxCell id="qM9dCVHoKCjXqsR11col-0" value="" style="edgeStyle=orthogonalEdgeStyle;rounded=1;html=1;exitX=0.5;exitY=1;exitDx=0;exitDy=0;endArrow=none;endFill=0;entryX=0.5;entryY=0;entryDx=0;entryDy=0;" parent="w7sXCsC1ERtZY_K8VD5S-1" source="qM9dCVHoKCjXqsR11col-3" target="As8lWXiBjGssKi_8kNv8-0" edge="1">
                    <mxGeometry relative="1" as="geometry">
                        <mxPoint x="210" y="310.0000000000001" as="targetPoint"/>
                    </mxGeometry>
                </mxCell>
                <mxCell id="qM9dCVHoKCjXqsR11col-1" value="" style="edgeStyle=orthogonalEdgeStyle;rounded=1;html=1;endArrow=none;endFill=0;entryX=0.5;entryY=0;entryDx=0;entryDy=0;" parent="w7sXCsC1ERtZY_K8VD5S-1" source="qM9dCVHoKCjXqsR11col-3" target="qM9dCVHoKCjXqsR11col-8" edge="1">
                    <mxGeometry relative="1" as="geometry">
                        <Array as="points">
                            <mxPoint x="430" y="270"/>
                            <mxPoint x="340" y="270"/>
                        </Array>
                    </mxGeometry>
                </mxCell>
                <mxCell id="qM9dCVHoKCjXqsR11col-2" value="" style="edgeStyle=orthogonalEdgeStyle;rounded=1;html=1;exitX=0.5;exitY=1;exitDx=0;exitDy=0;endArrow=none;endFill=0;entryX=0.5;entryY=0;entryDx=0;entryDy=0;" parent="w7sXCsC1ERtZY_K8VD5S-1" source="qM9dCVHoKCjXqsR11col-3" target="qM9dCVHoKCjXqsR11col-27" edge="1">
                    <mxGeometry relative="1" as="geometry">
                        <mxPoint x="670" y="320" as="targetPoint"/>
                    </mxGeometry>
                </mxCell>
                <mxCell id="ssomSLUcXalZ_x0qHVBk-13" style="edgeStyle=orthogonalEdgeStyle;html=1;exitX=0.5;exitY=1;exitDx=0;exitDy=0;endArrow=none;endFill=0;" parent="w7sXCsC1ERtZY_K8VD5S-1" source="qM9dCVHoKCjXqsR11col-3" target="ssomSLUcXalZ_x0qHVBk-7" edge="1">
                    <mxGeometry relative="1" as="geometry"/>
                </mxCell>
                <mxCell id="qM9dCVHoKCjXqsR11col-3" value="Homepage" style="rounded=0;whiteSpace=wrap;html=1;aspect=fixed;fillColor=#f8cecc;strokeColor=#b85450;" parent="w7sXCsC1ERtZY_K8VD5S-1" vertex="1">
                    <mxGeometry x="390" y="200" width="80" height="40" as="geometry"/>
                </mxCell>
                <mxCell id="ssomSLUcXalZ_x0qHVBk-4" style="edgeStyle=orthogonalEdgeStyle;html=1;exitX=0.25;exitY=1;exitDx=0;exitDy=0;entryX=0;entryY=0.5;entryDx=0;entryDy=0;endArrow=none;endFill=0;" parent="w7sXCsC1ERtZY_K8VD5S-1" source="qM9dCVHoKCjXqsR11col-8" target="ssomSLUcXalZ_x0qHVBk-3" edge="1">
                    <mxGeometry relative="1" as="geometry"/>
                </mxCell>
                <mxCell id="ssomSLUcXalZ_x0qHVBk-6" style="edgeStyle=orthogonalEdgeStyle;html=1;exitX=0.25;exitY=1;exitDx=0;exitDy=0;entryX=0;entryY=0.5;entryDx=0;entryDy=0;endArrow=none;endFill=0;" parent="w7sXCsC1ERtZY_K8VD5S-1" source="qM9dCVHoKCjXqsR11col-8" target="ssomSLUcXalZ_x0qHVBk-5" edge="1">
                    <mxGeometry relative="1" as="geometry"/>
                </mxCell>
                <mxCell id="qM9dCVHoKCjXqsR11col-8" value="Profile" style="rounded=0;whiteSpace=wrap;html=1;aspect=fixed;fillColor=#e1d5e7;strokeColor=#9673a6;" parent="w7sXCsC1ERtZY_K8VD5S-1" vertex="1">
                    <mxGeometry x="300" y="300" width="80" height="40" as="geometry"/>
                </mxCell>
                <mxCell id="qM9dCVHoKCjXqsR11col-27" value="Nav bar/ Sidebar" style="rounded=0;whiteSpace=wrap;html=1;aspect=fixed;fillColor=#e1d5e7;strokeColor=#9673a6;" parent="w7sXCsC1ERtZY_K8VD5S-1" vertex="1">
                    <mxGeometry x="660" y="300" width="80" height="40" as="geometry"/>
                </mxCell>
                <mxCell id="AnSmXkDs_DxpJL4prF6_-1" style="edgeStyle=orthogonalEdgeStyle;html=1;endArrow=none;endFill=0;entryX=0;entryY=0.5;entryDx=0;entryDy=0;exitX=0.25;exitY=1;exitDx=0;exitDy=0;" parent="w7sXCsC1ERtZY_K8VD5S-1" source="As8lWXiBjGssKi_8kNv8-0" target="AnSmXkDs_DxpJL4prF6_-0" edge="1">
                    <mxGeometry relative="1" as="geometry"/>
                </mxCell>
                <mxCell id="ssomSLUcXalZ_x0qHVBk-1" style="edgeStyle=orthogonalEdgeStyle;html=1;exitX=0.25;exitY=1;exitDx=0;exitDy=0;entryX=0;entryY=0.5;entryDx=0;entryDy=0;endArrow=none;endFill=0;" parent="w7sXCsC1ERtZY_K8VD5S-1" source="As8lWXiBjGssKi_8kNv8-0" target="ssomSLUcXalZ_x0qHVBk-0" edge="1">
                    <mxGeometry relative="1" as="geometry"/>
                </mxCell>
                <mxCell id="As8lWXiBjGssKi_8kNv8-0" value="Product" style="rounded=0;whiteSpace=wrap;html=1;aspect=fixed;fillColor=#e1d5e7;strokeColor=#9673a6;" parent="w7sXCsC1ERtZY_K8VD5S-1" vertex="1">
                    <mxGeometry x="120" y="300" width="80" height="40" as="geometry"/>
                </mxCell>
                <mxCell id="ssomSLUcXalZ_x0qHVBk-20" style="edgeStyle=orthogonalEdgeStyle;html=1;exitX=0.25;exitY=1;exitDx=0;exitDy=0;entryX=0;entryY=0.5;entryDx=0;entryDy=0;endArrow=none;endFill=0;" parent="w7sXCsC1ERtZY_K8VD5S-1" source="AnSmXkDs_DxpJL4prF6_-0" target="ssomSLUcXalZ_x0qHVBk-19" edge="1">
                    <mxGeometry relative="1" as="geometry"/>
                </mxCell>
                <mxCell id="AnSmXkDs_DxpJL4prF6_-0" value="Porduct Card" style="rounded=0;whiteSpace=wrap;html=1;aspect=fixed;fillColor=#dae8fc;strokeColor=#6c8ebf;" parent="w7sXCsC1ERtZY_K8VD5S-1" vertex="1">
                    <mxGeometry x="160" y="370" width="80" height="40" as="geometry"/>
                </mxCell>
                <mxCell id="ssomSLUcXalZ_x0qHVBk-0" value="Category Carousel" style="rounded=0;whiteSpace=wrap;html=1;aspect=fixed;fillColor=#dae8fc;strokeColor=#6c8ebf;" parent="w7sXCsC1ERtZY_K8VD5S-1" vertex="1">
                    <mxGeometry x="160" y="510" width="80" height="40" as="geometry"/>
                </mxCell>
                <mxCell id="ssomSLUcXalZ_x0qHVBk-3" value="Edit Form" style="rounded=0;whiteSpace=wrap;html=1;aspect=fixed;fillColor=#dae8fc;strokeColor=#6c8ebf;" parent="w7sXCsC1ERtZY_K8VD5S-1" vertex="1">
                    <mxGeometry x="340" y="370" width="80" height="40" as="geometry"/>
                </mxCell>
                <mxCell id="ssomSLUcXalZ_x0qHVBk-5" value="Order table" style="rounded=0;whiteSpace=wrap;html=1;aspect=fixed;fillColor=#dae8fc;strokeColor=#6c8ebf;" parent="w7sXCsC1ERtZY_K8VD5S-1" vertex="1">
                    <mxGeometry x="340" y="440" width="80" height="40" as="geometry"/>
                </mxCell>
                <mxCell id="ssomSLUcXalZ_x0qHVBk-10" style="edgeStyle=orthogonalEdgeStyle;html=1;exitX=0.25;exitY=1;exitDx=0;exitDy=0;entryX=0;entryY=0.5;entryDx=0;entryDy=0;endArrow=none;endFill=0;" parent="w7sXCsC1ERtZY_K8VD5S-1" source="ssomSLUcXalZ_x0qHVBk-7" target="ssomSLUcXalZ_x0qHVBk-9" edge="1">
                    <mxGeometry relative="1" as="geometry"/>
                </mxCell>
                <mxCell id="ssomSLUcXalZ_x0qHVBk-12" style="edgeStyle=orthogonalEdgeStyle;html=1;exitX=0.25;exitY=1;exitDx=0;exitDy=0;entryX=0;entryY=0.5;entryDx=0;entryDy=0;endArrow=none;endFill=0;" parent="w7sXCsC1ERtZY_K8VD5S-1" source="ssomSLUcXalZ_x0qHVBk-7" target="ssomSLUcXalZ_x0qHVBk-11" edge="1">
                    <mxGeometry relative="1" as="geometry"/>
                </mxCell>
                <mxCell id="ssomSLUcXalZ_x0qHVBk-7" value="Cart" style="rounded=0;whiteSpace=wrap;html=1;aspect=fixed;fillColor=#e1d5e7;strokeColor=#9673a6;" parent="w7sXCsC1ERtZY_K8VD5S-1" vertex="1">
                    <mxGeometry x="480" y="300" width="80" height="40" as="geometry"/>
                </mxCell>
                <mxCell id="ssomSLUcXalZ_x0qHVBk-9" value="Cart Item" style="rounded=0;whiteSpace=wrap;html=1;aspect=fixed;fillColor=#dae8fc;strokeColor=#6c8ebf;" parent="w7sXCsC1ERtZY_K8VD5S-1" vertex="1">
                    <mxGeometry x="520" y="370" width="80" height="40" as="geometry"/>
                </mxCell>
                <mxCell id="ssomSLUcXalZ_x0qHVBk-15" style="edgeStyle=orthogonalEdgeStyle;html=1;exitX=0.25;exitY=1;exitDx=0;exitDy=0;entryX=0;entryY=0.5;entryDx=0;entryDy=0;endArrow=none;endFill=0;" parent="w7sXCsC1ERtZY_K8VD5S-1" source="ssomSLUcXalZ_x0qHVBk-11" target="ssomSLUcXalZ_x0qHVBk-14" edge="1">
                    <mxGeometry relative="1" as="geometry"/>
                </mxCell>
                <mxCell id="ssomSLUcXalZ_x0qHVBk-11" value="Check Form" style="rounded=0;whiteSpace=wrap;html=1;aspect=fixed;fillColor=#dae8fc;strokeColor=#6c8ebf;" parent="w7sXCsC1ERtZY_K8VD5S-1" vertex="1">
                    <mxGeometry x="520" y="440" width="80" height="40" as="geometry"/>
                </mxCell>
                <mxCell id="ssomSLUcXalZ_x0qHVBk-14" value="Address Form" style="rounded=0;whiteSpace=wrap;html=1;aspect=fixed;fillColor=#ffe6cc;strokeColor=#d79b00;" parent="w7sXCsC1ERtZY_K8VD5S-1" vertex="1">
                    <mxGeometry x="560" y="510" width="80" height="40" as="geometry"/>
                </mxCell>
                <mxCell id="ssomSLUcXalZ_x0qHVBk-16" value="Login" style="rounded=0;whiteSpace=wrap;html=1;aspect=fixed;fillColor=#f8cecc;strokeColor=#b85450;" parent="w7sXCsC1ERtZY_K8VD5S-1" vertex="1">
                    <mxGeometry x="510" y="200" width="80" height="40" as="geometry"/>
                </mxCell>
                <mxCell id="ssomSLUcXalZ_x0qHVBk-17" value="Register" style="rounded=0;whiteSpace=wrap;html=1;aspect=fixed;fillColor=#f8cecc;strokeColor=#b85450;" parent="w7sXCsC1ERtZY_K8VD5S-1" vertex="1">
                    <mxGeometry x="630" y="200" width="80" height="40" as="geometry"/>
                </mxCell>
                <mxCell id="ssomSLUcXalZ_x0qHVBk-18" value="Error" style="rounded=0;whiteSpace=wrap;html=1;aspect=fixed;fillColor=#f8cecc;strokeColor=#b85450;" parent="w7sXCsC1ERtZY_K8VD5S-1" vertex="1">
                    <mxGeometry x="750" y="200" width="80" height="40" as="geometry"/>
                </mxCell>
                <mxCell id="ssomSLUcXalZ_x0qHVBk-19" value="Porduct Detail" style="rounded=0;whiteSpace=wrap;html=1;aspect=fixed;fillColor=#ffe6cc;strokeColor=#d79b00;" parent="w7sXCsC1ERtZY_K8VD5S-1" vertex="1">
                    <mxGeometry x="200" y="440" width="80" height="40" as="geometry"/>
                </mxCell>
            </root>
        </mxGraphModel>
    </diagram>
    <diagram id="5MHo3f-m71Vd7gwW0iGD" name="Admin">
        <mxGraphModel dx="1084" dy="552" grid="0" gridSize="10" guides="1" tooltips="1" connect="1" arrows="1" fold="1" page="0" pageScale="1" pageWidth="850" pageHeight="1100" math="0" shadow="0">
            <root>
                <mxCell id="RXhm2aVeyBwt2U3GliSQ-0"/>
                <mxCell id="RXhm2aVeyBwt2U3GliSQ-1" parent="RXhm2aVeyBwt2U3GliSQ-0"/>
                <mxCell id="KwBMR27IU_zbT9Xyu6F--0" value="" style="edgeStyle=orthogonalEdgeStyle;rounded=1;html=1;exitX=0.5;exitY=1;exitDx=0;exitDy=0;endArrow=none;endFill=0;entryX=0.5;entryY=0;entryDx=0;entryDy=0;" parent="RXhm2aVeyBwt2U3GliSQ-1" source="KwBMR27IU_zbT9Xyu6F--4" target="KwBMR27IU_zbT9Xyu6F--11" edge="1">
                    <mxGeometry relative="1" as="geometry">
                        <mxPoint x="210" y="310.0000000000001" as="targetPoint"/>
                    </mxGeometry>
                </mxCell>
                <mxCell id="KwBMR27IU_zbT9Xyu6F--1" value="" style="edgeStyle=orthogonalEdgeStyle;rounded=1;html=1;endArrow=none;endFill=0;entryX=0.5;entryY=0;entryDx=0;entryDy=0;exitX=0.5;exitY=1;exitDx=0;exitDy=0;" parent="RXhm2aVeyBwt2U3GliSQ-1" source="KwBMR27IU_zbT9Xyu6F--4" target="KwBMR27IU_zbT9Xyu6F--7" edge="1">
                    <mxGeometry relative="1" as="geometry"/>
                </mxCell>
                <mxCell id="KwBMR27IU_zbT9Xyu6F--2" value="" style="edgeStyle=orthogonalEdgeStyle;rounded=1;html=1;exitX=0.5;exitY=1;exitDx=0;exitDy=0;endArrow=none;endFill=0;entryX=0.5;entryY=0;entryDx=0;entryDy=0;" parent="RXhm2aVeyBwt2U3GliSQ-1" source="KwBMR27IU_zbT9Xyu6F--4" target="KwBMR27IU_zbT9Xyu6F--8" edge="1">
                    <mxGeometry relative="1" as="geometry">
                        <mxPoint x="670" y="320" as="targetPoint"/>
                    </mxGeometry>
                </mxCell>
                <mxCell id="KwBMR27IU_zbT9Xyu6F--3" style="edgeStyle=orthogonalEdgeStyle;html=1;exitX=0.5;exitY=1;exitDx=0;exitDy=0;endArrow=none;endFill=0;" parent="RXhm2aVeyBwt2U3GliSQ-1" source="KwBMR27IU_zbT9Xyu6F--4" target="KwBMR27IU_zbT9Xyu6F--19" edge="1">
                    <mxGeometry relative="1" as="geometry"/>
                </mxCell>
                <mxCell id="EYv7FPqBgwg-0ogVDak5-17" style="edgeStyle=orthogonalEdgeStyle;html=1;exitX=0.5;exitY=1;exitDx=0;exitDy=0;entryX=0.5;entryY=0;entryDx=0;entryDy=0;endArrow=none;endFill=0;" parent="RXhm2aVeyBwt2U3GliSQ-1" source="KwBMR27IU_zbT9Xyu6F--4" target="EYv7FPqBgwg-0ogVDak5-9" edge="1">
                    <mxGeometry relative="1" as="geometry"/>
                </mxCell>
                <mxCell id="EYv7FPqBgwg-0ogVDak5-23" style="edgeStyle=orthogonalEdgeStyle;html=1;exitX=0.5;exitY=1;exitDx=0;exitDy=0;entryX=0.5;entryY=0;entryDx=0;entryDy=0;endArrow=none;endFill=0;" parent="RXhm2aVeyBwt2U3GliSQ-1" source="KwBMR27IU_zbT9Xyu6F--4" target="EYv7FPqBgwg-0ogVDak5-18" edge="1">
                    <mxGeometry relative="1" as="geometry"/>
                </mxCell>
                <mxCell id="8xNaJOQO3ZIdhw0JeH13-3" style="edgeStyle=orthogonalEdgeStyle;html=1;exitX=0.5;exitY=1;exitDx=0;exitDy=0;entryX=0.5;entryY=0;entryDx=0;entryDy=0;endArrow=none;endFill=0;" parent="RXhm2aVeyBwt2U3GliSQ-1" source="KwBMR27IU_zbT9Xyu6F--4" target="8xNaJOQO3ZIdhw0JeH13-0" edge="1">
                    <mxGeometry relative="1" as="geometry"/>
                </mxCell>
                <mxCell id="KwBMR27IU_zbT9Xyu6F--4" value="Homepage" style="rounded=0;whiteSpace=wrap;html=1;aspect=fixed;fillColor=#f8cecc;strokeColor=#b85450;" parent="RXhm2aVeyBwt2U3GliSQ-1" vertex="1">
                    <mxGeometry x="390" y="200" width="80" height="40" as="geometry"/>
                </mxCell>
                <mxCell id="KwBMR27IU_zbT9Xyu6F--5" style="edgeStyle=orthogonalEdgeStyle;html=1;exitX=0.25;exitY=1;exitDx=0;exitDy=0;entryX=0;entryY=0.5;entryDx=0;entryDy=0;endArrow=none;endFill=0;" parent="RXhm2aVeyBwt2U3GliSQ-1" source="KwBMR27IU_zbT9Xyu6F--7" target="KwBMR27IU_zbT9Xyu6F--15" edge="1">
                    <mxGeometry relative="1" as="geometry"/>
                </mxCell>
                <mxCell id="KwBMR27IU_zbT9Xyu6F--6" style="edgeStyle=orthogonalEdgeStyle;html=1;exitX=0.25;exitY=1;exitDx=0;exitDy=0;entryX=0;entryY=0.5;entryDx=0;entryDy=0;endArrow=none;endFill=0;" parent="RXhm2aVeyBwt2U3GliSQ-1" source="KwBMR27IU_zbT9Xyu6F--7" target="KwBMR27IU_zbT9Xyu6F--16" edge="1">
                    <mxGeometry relative="1" as="geometry"/>
                </mxCell>
                <mxCell id="KwBMR27IU_zbT9Xyu6F--7" value="Profile" style="rounded=0;whiteSpace=wrap;html=1;aspect=fixed;fillColor=#e1d5e7;strokeColor=#9673a6;" parent="RXhm2aVeyBwt2U3GliSQ-1" vertex="1">
                    <mxGeometry x="27" y="300" width="80" height="40" as="geometry"/>
                </mxCell>
                <mxCell id="KwBMR27IU_zbT9Xyu6F--8" value="Nav bar/ Sidebar" style="rounded=0;whiteSpace=wrap;html=1;aspect=fixed;fillColor=#e1d5e7;strokeColor=#9673a6;" parent="RXhm2aVeyBwt2U3GliSQ-1" vertex="1">
                    <mxGeometry x="924" y="300" width="80" height="40" as="geometry"/>
                </mxCell>
                <mxCell id="KwBMR27IU_zbT9Xyu6F--9" style="edgeStyle=orthogonalEdgeStyle;html=1;endArrow=none;endFill=0;entryX=0;entryY=0.5;entryDx=0;entryDy=0;exitX=0.25;exitY=1;exitDx=0;exitDy=0;" parent="RXhm2aVeyBwt2U3GliSQ-1" source="KwBMR27IU_zbT9Xyu6F--11" target="KwBMR27IU_zbT9Xyu6F--13" edge="1">
                    <mxGeometry relative="1" as="geometry"/>
                </mxCell>
                <mxCell id="KwBMR27IU_zbT9Xyu6F--10" style="edgeStyle=orthogonalEdgeStyle;html=1;exitX=0.25;exitY=1;exitDx=0;exitDy=0;entryX=0;entryY=0.5;entryDx=0;entryDy=0;endArrow=none;endFill=0;" parent="RXhm2aVeyBwt2U3GliSQ-1" source="KwBMR27IU_zbT9Xyu6F--11" target="KwBMR27IU_zbT9Xyu6F--14" edge="1">
                    <mxGeometry relative="1" as="geometry"/>
                </mxCell>
                <mxCell id="KwBMR27IU_zbT9Xyu6F--11" value="Product" style="rounded=0;whiteSpace=wrap;html=1;aspect=fixed;fillColor=#e1d5e7;strokeColor=#9673a6;" parent="RXhm2aVeyBwt2U3GliSQ-1" vertex="1">
                    <mxGeometry x="-153" y="300" width="80" height="40" as="geometry"/>
                </mxCell>
                <mxCell id="KwBMR27IU_zbT9Xyu6F--12" style="edgeStyle=orthogonalEdgeStyle;html=1;exitX=0.25;exitY=1;exitDx=0;exitDy=0;entryX=0;entryY=0.5;entryDx=0;entryDy=0;endArrow=none;endFill=0;" parent="RXhm2aVeyBwt2U3GliSQ-1" source="KwBMR27IU_zbT9Xyu6F--13" target="KwBMR27IU_zbT9Xyu6F--27" edge="1">
                    <mxGeometry relative="1" as="geometry"/>
                </mxCell>
                <mxCell id="KwBMR27IU_zbT9Xyu6F--13" value="Porduct Card" style="rounded=0;whiteSpace=wrap;html=1;aspect=fixed;fillColor=#dae8fc;strokeColor=#6c8ebf;" parent="RXhm2aVeyBwt2U3GliSQ-1" vertex="1">
                    <mxGeometry x="-113" y="370" width="80" height="40" as="geometry"/>
                </mxCell>
                <mxCell id="KwBMR27IU_zbT9Xyu6F--14" value="Category Carousel" style="rounded=0;whiteSpace=wrap;html=1;aspect=fixed;fillColor=#dae8fc;strokeColor=#6c8ebf;" parent="RXhm2aVeyBwt2U3GliSQ-1" vertex="1">
                    <mxGeometry x="-113" y="510" width="80" height="40" as="geometry"/>
                </mxCell>
                <mxCell id="KwBMR27IU_zbT9Xyu6F--15" value="Edit Form" style="rounded=0;whiteSpace=wrap;html=1;aspect=fixed;fillColor=#dae8fc;strokeColor=#6c8ebf;" parent="RXhm2aVeyBwt2U3GliSQ-1" vertex="1">
                    <mxGeometry x="67" y="370" width="80" height="40" as="geometry"/>
                </mxCell>
                <mxCell id="KwBMR27IU_zbT9Xyu6F--16" value="Order table" style="rounded=0;whiteSpace=wrap;html=1;aspect=fixed;fillColor=#dae8fc;strokeColor=#6c8ebf;" parent="RXhm2aVeyBwt2U3GliSQ-1" vertex="1">
                    <mxGeometry x="67" y="440" width="80" height="40" as="geometry"/>
                </mxCell>
                <mxCell id="KwBMR27IU_zbT9Xyu6F--17" style="edgeStyle=orthogonalEdgeStyle;html=1;exitX=0.25;exitY=1;exitDx=0;exitDy=0;entryX=0;entryY=0.5;entryDx=0;entryDy=0;endArrow=none;endFill=0;" parent="RXhm2aVeyBwt2U3GliSQ-1" source="KwBMR27IU_zbT9Xyu6F--19" target="KwBMR27IU_zbT9Xyu6F--20" edge="1">
                    <mxGeometry relative="1" as="geometry"/>
                </mxCell>
                <mxCell id="KwBMR27IU_zbT9Xyu6F--18" style="edgeStyle=orthogonalEdgeStyle;html=1;exitX=0.25;exitY=1;exitDx=0;exitDy=0;entryX=0;entryY=0.5;entryDx=0;entryDy=0;endArrow=none;endFill=0;" parent="RXhm2aVeyBwt2U3GliSQ-1" source="KwBMR27IU_zbT9Xyu6F--19" target="KwBMR27IU_zbT9Xyu6F--22" edge="1">
                    <mxGeometry relative="1" as="geometry"/>
                </mxCell>
                <mxCell id="EYv7FPqBgwg-0ogVDak5-8" style="edgeStyle=orthogonalEdgeStyle;html=1;exitX=0.25;exitY=1;exitDx=0;exitDy=0;entryX=0;entryY=0.5;entryDx=0;entryDy=0;endArrow=none;endFill=0;" parent="RXhm2aVeyBwt2U3GliSQ-1" source="KwBMR27IU_zbT9Xyu6F--19" target="EYv7FPqBgwg-0ogVDak5-7" edge="1">
                    <mxGeometry relative="1" as="geometry"/>
                </mxCell>
                <mxCell id="KwBMR27IU_zbT9Xyu6F--19" value="Product Management" style="rounded=0;whiteSpace=wrap;html=1;aspect=fixed;fillColor=#e1d5e7;strokeColor=#9673a6;" parent="RXhm2aVeyBwt2U3GliSQ-1" vertex="1">
                    <mxGeometry x="207" y="300" width="80" height="40" as="geometry"/>
                </mxCell>
                <mxCell id="EYv7FPqBgwg-0ogVDak5-4" style="edgeStyle=orthogonalEdgeStyle;html=1;exitX=0.25;exitY=1;exitDx=0;exitDy=0;entryX=0;entryY=0.5;entryDx=0;entryDy=0;endArrow=none;endFill=0;" parent="RXhm2aVeyBwt2U3GliSQ-1" source="KwBMR27IU_zbT9Xyu6F--20" target="EYv7FPqBgwg-0ogVDak5-2" edge="1">
                    <mxGeometry relative="1" as="geometry"/>
                </mxCell>
                <mxCell id="EYv7FPqBgwg-0ogVDak5-5" style="edgeStyle=orthogonalEdgeStyle;html=1;exitX=0.25;exitY=1;exitDx=0;exitDy=0;entryX=0;entryY=0.5;entryDx=0;entryDy=0;endArrow=none;endFill=0;" parent="RXhm2aVeyBwt2U3GliSQ-1" source="KwBMR27IU_zbT9Xyu6F--20" target="EYv7FPqBgwg-0ogVDak5-3" edge="1">
                    <mxGeometry relative="1" as="geometry"/>
                </mxCell>
                <mxCell id="KwBMR27IU_zbT9Xyu6F--20" value="Product table" style="rounded=0;whiteSpace=wrap;html=1;aspect=fixed;fillColor=#dae8fc;strokeColor=#6c8ebf;" parent="RXhm2aVeyBwt2U3GliSQ-1" vertex="1">
                    <mxGeometry x="247" y="370" width="80" height="40" as="geometry"/>
                </mxCell>
                <mxCell id="KwBMR27IU_zbT9Xyu6F--22" value="Search/ FIlter" style="rounded=0;whiteSpace=wrap;html=1;aspect=fixed;fillColor=#dae8fc;strokeColor=#6c8ebf;" parent="RXhm2aVeyBwt2U3GliSQ-1" vertex="1">
                    <mxGeometry x="247" y="580" width="80" height="40" as="geometry"/>
                </mxCell>
                <mxCell id="KwBMR27IU_zbT9Xyu6F--24" value="Login" style="rounded=0;whiteSpace=wrap;html=1;aspect=fixed;fillColor=#f8cecc;strokeColor=#b85450;" parent="RXhm2aVeyBwt2U3GliSQ-1" vertex="1">
                    <mxGeometry x="510" y="200" width="80" height="40" as="geometry"/>
                </mxCell>
                <mxCell id="KwBMR27IU_zbT9Xyu6F--25" value="Register" style="rounded=0;whiteSpace=wrap;html=1;aspect=fixed;fillColor=#f8cecc;strokeColor=#b85450;" parent="RXhm2aVeyBwt2U3GliSQ-1" vertex="1">
                    <mxGeometry x="630" y="200" width="80" height="40" as="geometry"/>
                </mxCell>
                <mxCell id="KwBMR27IU_zbT9Xyu6F--26" value="Error" style="rounded=0;whiteSpace=wrap;html=1;aspect=fixed;fillColor=#f8cecc;strokeColor=#b85450;" parent="RXhm2aVeyBwt2U3GliSQ-1" vertex="1">
                    <mxGeometry x="750" y="200" width="80" height="40" as="geometry"/>
                </mxCell>
                <mxCell id="KwBMR27IU_zbT9Xyu6F--27" value="Porduct Detail" style="rounded=0;whiteSpace=wrap;html=1;aspect=fixed;fillColor=#ffe6cc;strokeColor=#d79b00;" parent="RXhm2aVeyBwt2U3GliSQ-1" vertex="1">
                    <mxGeometry x="-73" y="440" width="80" height="40" as="geometry"/>
                </mxCell>
                <mxCell id="EYv7FPqBgwg-0ogVDak5-2" value="Update Form" style="rounded=0;whiteSpace=wrap;html=1;aspect=fixed;fillColor=#ffe6cc;strokeColor=#d79b00;" parent="RXhm2aVeyBwt2U3GliSQ-1" vertex="1">
                    <mxGeometry x="287" y="440" width="80" height="40" as="geometry"/>
                </mxCell>
                <mxCell id="EYv7FPqBgwg-0ogVDak5-3" value="Delete Modal" style="rounded=0;whiteSpace=wrap;html=1;aspect=fixed;fillColor=#ffe6cc;strokeColor=#d79b00;" parent="RXhm2aVeyBwt2U3GliSQ-1" vertex="1">
                    <mxGeometry x="287" y="510" width="80" height="40" as="geometry"/>
                </mxCell>
                <mxCell id="EYv7FPqBgwg-0ogVDak5-7" value="Create Form" style="rounded=0;whiteSpace=wrap;html=1;aspect=fixed;fillColor=#dae8fc;strokeColor=#6c8ebf;" parent="RXhm2aVeyBwt2U3GliSQ-1" vertex="1">
                    <mxGeometry x="247" y="650" width="80" height="40" as="geometry"/>
                </mxCell>
                <mxCell id="EYv7FPqBgwg-0ogVDak5-11" style="edgeStyle=orthogonalEdgeStyle;html=1;exitX=0.25;exitY=1;exitDx=0;exitDy=0;entryX=0;entryY=0.5;entryDx=0;entryDy=0;endArrow=none;endFill=0;" parent="RXhm2aVeyBwt2U3GliSQ-1" source="EYv7FPqBgwg-0ogVDak5-9" target="EYv7FPqBgwg-0ogVDak5-10" edge="1">
                    <mxGeometry relative="1" as="geometry"/>
                </mxCell>
                <mxCell id="EYv7FPqBgwg-0ogVDak5-9" value="Category Management" style="rounded=0;whiteSpace=wrap;html=1;aspect=fixed;fillColor=#e1d5e7;strokeColor=#9673a6;" parent="RXhm2aVeyBwt2U3GliSQ-1" vertex="1">
                    <mxGeometry x="390" y="300" width="80" height="40" as="geometry"/>
                </mxCell>
                <mxCell id="EYv7FPqBgwg-0ogVDak5-13" style="edgeStyle=orthogonalEdgeStyle;html=1;exitX=0.25;exitY=1;exitDx=0;exitDy=0;entryX=0;entryY=0.5;entryDx=0;entryDy=0;endArrow=none;endFill=0;" parent="RXhm2aVeyBwt2U3GliSQ-1" source="EYv7FPqBgwg-0ogVDak5-10" target="EYv7FPqBgwg-0ogVDak5-12" edge="1">
                    <mxGeometry relative="1" as="geometry"/>
                </mxCell>
                <mxCell id="EYv7FPqBgwg-0ogVDak5-15" style="edgeStyle=orthogonalEdgeStyle;html=1;exitX=0.25;exitY=1;exitDx=0;exitDy=0;entryX=0;entryY=0.5;entryDx=0;entryDy=0;endArrow=none;endFill=0;" parent="RXhm2aVeyBwt2U3GliSQ-1" source="EYv7FPqBgwg-0ogVDak5-10" target="EYv7FPqBgwg-0ogVDak5-14" edge="1">
                    <mxGeometry relative="1" as="geometry"/>
                </mxCell>
                <mxCell id="EYv7FPqBgwg-0ogVDak5-10" value="Category List" style="rounded=0;whiteSpace=wrap;html=1;aspect=fixed;fillColor=#dae8fc;strokeColor=#6c8ebf;" parent="RXhm2aVeyBwt2U3GliSQ-1" vertex="1">
                    <mxGeometry x="427" y="370" width="80" height="40" as="geometry"/>
                </mxCell>
                <mxCell id="EYv7FPqBgwg-0ogVDak5-12" value="Edit Form" style="rounded=0;whiteSpace=wrap;html=1;aspect=fixed;fillColor=#ffe6cc;strokeColor=#d79b00;" parent="RXhm2aVeyBwt2U3GliSQ-1" vertex="1">
                    <mxGeometry x="467" y="440" width="80" height="40" as="geometry"/>
                </mxCell>
                <mxCell id="EYv7FPqBgwg-0ogVDak5-14" value="Subcategory list" style="rounded=0;whiteSpace=wrap;html=1;aspect=fixed;fillColor=#ffe6cc;strokeColor=#d79b00;" parent="RXhm2aVeyBwt2U3GliSQ-1" vertex="1">
                    <mxGeometry x="467" y="510" width="80" height="40" as="geometry"/>
                </mxCell>
                <mxCell id="EYv7FPqBgwg-0ogVDak5-20" style="edgeStyle=orthogonalEdgeStyle;html=1;exitX=0.25;exitY=1;exitDx=0;exitDy=0;entryX=0;entryY=0.5;entryDx=0;entryDy=0;endArrow=none;endFill=0;" parent="RXhm2aVeyBwt2U3GliSQ-1" source="EYv7FPqBgwg-0ogVDak5-18" target="EYv7FPqBgwg-0ogVDak5-19" edge="1">
                    <mxGeometry relative="1" as="geometry"/>
                </mxCell>
                <mxCell id="EYv7FPqBgwg-0ogVDak5-22" style="edgeStyle=orthogonalEdgeStyle;html=1;exitX=0.25;exitY=1;exitDx=0;exitDy=0;entryX=0;entryY=0.5;entryDx=0;entryDy=0;endArrow=none;endFill=0;" parent="RXhm2aVeyBwt2U3GliSQ-1" source="EYv7FPqBgwg-0ogVDak5-18" target="EYv7FPqBgwg-0ogVDak5-21" edge="1">
                    <mxGeometry relative="1" as="geometry"/>
                </mxCell>
                <mxCell id="EYv7FPqBgwg-0ogVDak5-18" value="Dashboard" style="rounded=0;whiteSpace=wrap;html=1;aspect=fixed;fillColor=#e1d5e7;strokeColor=#9673a6;" parent="RXhm2aVeyBwt2U3GliSQ-1" vertex="1">
                    <mxGeometry x="567" y="300" width="80" height="40" as="geometry"/>
                </mxCell>
                <mxCell id="EYv7FPqBgwg-0ogVDak5-19" value="Ratio widgets" style="rounded=0;whiteSpace=wrap;html=1;aspect=fixed;fillColor=#dae8fc;strokeColor=#6c8ebf;" parent="RXhm2aVeyBwt2U3GliSQ-1" vertex="1">
                    <mxGeometry x="607" y="370" width="80" height="40" as="geometry"/>
                </mxCell>
                <mxCell id="EYv7FPqBgwg-0ogVDak5-21" value="Top Sold Product table" style="rounded=0;whiteSpace=wrap;html=1;aspect=fixed;fillColor=#dae8fc;strokeColor=#6c8ebf;" parent="RXhm2aVeyBwt2U3GliSQ-1" vertex="1">
                    <mxGeometry x="607" y="440" width="80" height="40" as="geometry"/>
                </mxCell>
                <mxCell id="8xNaJOQO3ZIdhw0JeH13-2" style="edgeStyle=orthogonalEdgeStyle;html=1;exitX=0.25;exitY=1;exitDx=0;exitDy=0;entryX=0;entryY=0.5;entryDx=0;entryDy=0;endArrow=none;endFill=0;" parent="RXhm2aVeyBwt2U3GliSQ-1" source="8xNaJOQO3ZIdhw0JeH13-0" target="8xNaJOQO3ZIdhw0JeH13-1" edge="1">
                    <mxGeometry relative="1" as="geometry"/>
                </mxCell>
                <mxCell id="8xNaJOQO3ZIdhw0JeH13-0" value="Account Management" style="rounded=0;whiteSpace=wrap;html=1;aspect=fixed;fillColor=#e1d5e7;strokeColor=#9673a6;" parent="RXhm2aVeyBwt2U3GliSQ-1" vertex="1">
                    <mxGeometry x="744" y="300" width="80" height="40" as="geometry"/>
                </mxCell>
                <mxCell id="8xNaJOQO3ZIdhw0JeH13-1" value="Account table" style="rounded=0;whiteSpace=wrap;html=1;aspect=fixed;fillColor=#dae8fc;strokeColor=#6c8ebf;" parent="RXhm2aVeyBwt2U3GliSQ-1" vertex="1">
                    <mxGeometry x="784" y="370" width="80" height="40" as="geometry"/>
                </mxCell>
            </root>
        </mxGraphModel>
    </diagram>
    <diagram id="5I3A8QbSnp5hxzSWu-uc" name="Shipper">
        <mxGraphModel dx="684" dy="552" grid="0" gridSize="10" guides="1" tooltips="1" connect="1" arrows="1" fold="1" page="0" pageScale="1" pageWidth="850" pageHeight="1100" math="0" shadow="0">
            <root>
                <mxCell id="d5jiHxyTMjD3Zu9fJmXG-0"/>
                <mxCell id="d5jiHxyTMjD3Zu9fJmXG-1" parent="d5jiHxyTMjD3Zu9fJmXG-0"/>
                <mxCell id="qUDHrIEz_biMVplgpXYU-0" value="" style="edgeStyle=orthogonalEdgeStyle;rounded=1;html=1;exitX=0.5;exitY=1;exitDx=0;exitDy=0;endArrow=none;endFill=0;entryX=0.5;entryY=0;entryDx=0;entryDy=0;" parent="d5jiHxyTMjD3Zu9fJmXG-1" source="qUDHrIEz_biMVplgpXYU-4" target="qUDHrIEz_biMVplgpXYU-11" edge="1">
                    <mxGeometry relative="1" as="geometry">
                        <mxPoint x="210" y="310.0000000000001" as="targetPoint"/>
                    </mxGeometry>
                </mxCell>
                <mxCell id="qUDHrIEz_biMVplgpXYU-1" value="" style="edgeStyle=orthogonalEdgeStyle;rounded=1;html=1;endArrow=none;endFill=0;entryX=0.5;entryY=0;entryDx=0;entryDy=0;exitX=0.5;exitY=1;exitDx=0;exitDy=0;" parent="d5jiHxyTMjD3Zu9fJmXG-1" source="qUDHrIEz_biMVplgpXYU-4" target="qUDHrIEz_biMVplgpXYU-7" edge="1">
                    <mxGeometry relative="1" as="geometry"/>
                </mxCell>
                <mxCell id="qUDHrIEz_biMVplgpXYU-2" value="" style="edgeStyle=orthogonalEdgeStyle;rounded=1;html=1;exitX=0.5;exitY=1;exitDx=0;exitDy=0;endArrow=none;endFill=0;entryX=0.5;entryY=0;entryDx=0;entryDy=0;" parent="d5jiHxyTMjD3Zu9fJmXG-1" source="qUDHrIEz_biMVplgpXYU-4" target="qUDHrIEz_biMVplgpXYU-8" edge="1">
                    <mxGeometry relative="1" as="geometry">
                        <mxPoint x="670" y="320" as="targetPoint"/>
                    </mxGeometry>
                </mxCell>
                <mxCell id="qUDHrIEz_biMVplgpXYU-3" style="edgeStyle=orthogonalEdgeStyle;html=1;exitX=0.5;exitY=1;exitDx=0;exitDy=0;endArrow=none;endFill=0;" parent="d5jiHxyTMjD3Zu9fJmXG-1" source="qUDHrIEz_biMVplgpXYU-4" target="qUDHrIEz_biMVplgpXYU-19" edge="1">
                    <mxGeometry relative="1" as="geometry"/>
                </mxCell>
                <mxCell id="qUDHrIEz_biMVplgpXYU-41" style="edgeStyle=orthogonalEdgeStyle;html=1;exitX=0.5;exitY=1;exitDx=0;exitDy=0;entryX=0.5;entryY=0;entryDx=0;entryDy=0;endArrow=none;endFill=0;" parent="d5jiHxyTMjD3Zu9fJmXG-1" source="qUDHrIEz_biMVplgpXYU-4" target="qUDHrIEz_biMVplgpXYU-34" edge="1">
                    <mxGeometry relative="1" as="geometry"/>
                </mxCell>
                <mxCell id="qUDHrIEz_biMVplgpXYU-4" value="Homepage" style="rounded=0;whiteSpace=wrap;html=1;aspect=fixed;fillColor=#f8cecc;strokeColor=#b85450;" parent="d5jiHxyTMjD3Zu9fJmXG-1" vertex="1">
                    <mxGeometry x="390" y="200" width="80" height="40" as="geometry"/>
                </mxCell>
                <mxCell id="qUDHrIEz_biMVplgpXYU-5" style="edgeStyle=orthogonalEdgeStyle;html=1;exitX=0.25;exitY=1;exitDx=0;exitDy=0;entryX=0;entryY=0.5;entryDx=0;entryDy=0;endArrow=none;endFill=0;" parent="d5jiHxyTMjD3Zu9fJmXG-1" source="qUDHrIEz_biMVplgpXYU-7" target="qUDHrIEz_biMVplgpXYU-15" edge="1">
                    <mxGeometry relative="1" as="geometry"/>
                </mxCell>
                <mxCell id="qUDHrIEz_biMVplgpXYU-6" style="edgeStyle=orthogonalEdgeStyle;html=1;exitX=0.25;exitY=1;exitDx=0;exitDy=0;entryX=0;entryY=0.5;entryDx=0;entryDy=0;endArrow=none;endFill=0;" parent="d5jiHxyTMjD3Zu9fJmXG-1" source="qUDHrIEz_biMVplgpXYU-7" target="qUDHrIEz_biMVplgpXYU-16" edge="1">
                    <mxGeometry relative="1" as="geometry"/>
                </mxCell>
                <mxCell id="qUDHrIEz_biMVplgpXYU-7" value="Profile" style="rounded=0;whiteSpace=wrap;html=1;aspect=fixed;fillColor=#e1d5e7;strokeColor=#9673a6;" parent="d5jiHxyTMjD3Zu9fJmXG-1" vertex="1">
                    <mxGeometry x="210" y="300" width="80" height="40" as="geometry"/>
                </mxCell>
                <mxCell id="qUDHrIEz_biMVplgpXYU-8" value="Nav bar/ Sidebar" style="rounded=0;whiteSpace=wrap;html=1;aspect=fixed;fillColor=#e1d5e7;strokeColor=#9673a6;" parent="d5jiHxyTMjD3Zu9fJmXG-1" vertex="1">
                    <mxGeometry x="750" y="300" width="80" height="40" as="geometry"/>
                </mxCell>
                <mxCell id="qUDHrIEz_biMVplgpXYU-9" style="edgeStyle=orthogonalEdgeStyle;html=1;endArrow=none;endFill=0;entryX=0;entryY=0.5;entryDx=0;entryDy=0;exitX=0.25;exitY=1;exitDx=0;exitDy=0;" parent="d5jiHxyTMjD3Zu9fJmXG-1" source="qUDHrIEz_biMVplgpXYU-11" target="qUDHrIEz_biMVplgpXYU-13" edge="1">
                    <mxGeometry relative="1" as="geometry"/>
                </mxCell>
                <mxCell id="qUDHrIEz_biMVplgpXYU-10" style="edgeStyle=orthogonalEdgeStyle;html=1;exitX=0.25;exitY=1;exitDx=0;exitDy=0;entryX=0;entryY=0.5;entryDx=0;entryDy=0;endArrow=none;endFill=0;" parent="d5jiHxyTMjD3Zu9fJmXG-1" source="qUDHrIEz_biMVplgpXYU-11" target="qUDHrIEz_biMVplgpXYU-14" edge="1">
                    <mxGeometry relative="1" as="geometry"/>
                </mxCell>
                <mxCell id="qUDHrIEz_biMVplgpXYU-11" value="Product" style="rounded=0;whiteSpace=wrap;html=1;aspect=fixed;fillColor=#e1d5e7;strokeColor=#9673a6;" parent="d5jiHxyTMjD3Zu9fJmXG-1" vertex="1">
                    <mxGeometry x="30" y="300" width="80" height="40" as="geometry"/>
                </mxCell>
                <mxCell id="qUDHrIEz_biMVplgpXYU-12" style="edgeStyle=orthogonalEdgeStyle;html=1;exitX=0.25;exitY=1;exitDx=0;exitDy=0;entryX=0;entryY=0.5;entryDx=0;entryDy=0;endArrow=none;endFill=0;" parent="d5jiHxyTMjD3Zu9fJmXG-1" source="qUDHrIEz_biMVplgpXYU-13" target="qUDHrIEz_biMVplgpXYU-27" edge="1">
                    <mxGeometry relative="1" as="geometry"/>
                </mxCell>
                <mxCell id="qUDHrIEz_biMVplgpXYU-13" value="Porduct Card" style="rounded=0;whiteSpace=wrap;html=1;aspect=fixed;fillColor=#dae8fc;strokeColor=#6c8ebf;" parent="d5jiHxyTMjD3Zu9fJmXG-1" vertex="1">
                    <mxGeometry x="70" y="370" width="80" height="40" as="geometry"/>
                </mxCell>
                <mxCell id="qUDHrIEz_biMVplgpXYU-14" value="Category Carousel" style="rounded=0;whiteSpace=wrap;html=1;aspect=fixed;fillColor=#dae8fc;strokeColor=#6c8ebf;" parent="d5jiHxyTMjD3Zu9fJmXG-1" vertex="1">
                    <mxGeometry x="70" y="510" width="80" height="40" as="geometry"/>
                </mxCell>
                <mxCell id="qUDHrIEz_biMVplgpXYU-15" value="Edit Form" style="rounded=0;whiteSpace=wrap;html=1;aspect=fixed;fillColor=#dae8fc;strokeColor=#6c8ebf;" parent="d5jiHxyTMjD3Zu9fJmXG-1" vertex="1">
                    <mxGeometry x="250" y="370" width="80" height="40" as="geometry"/>
                </mxCell>
                <mxCell id="qUDHrIEz_biMVplgpXYU-16" value="Order table" style="rounded=0;whiteSpace=wrap;html=1;aspect=fixed;fillColor=#dae8fc;strokeColor=#6c8ebf;" parent="d5jiHxyTMjD3Zu9fJmXG-1" vertex="1">
                    <mxGeometry x="250" y="440" width="80" height="40" as="geometry"/>
                </mxCell>
                <mxCell id="qUDHrIEz_biMVplgpXYU-17" style="edgeStyle=orthogonalEdgeStyle;html=1;exitX=0.25;exitY=1;exitDx=0;exitDy=0;entryX=0;entryY=0.5;entryDx=0;entryDy=0;endArrow=none;endFill=0;" parent="d5jiHxyTMjD3Zu9fJmXG-1" source="qUDHrIEz_biMVplgpXYU-19" target="qUDHrIEz_biMVplgpXYU-20" edge="1">
                    <mxGeometry relative="1" as="geometry"/>
                </mxCell>
                <mxCell id="qUDHrIEz_biMVplgpXYU-18" style="edgeStyle=orthogonalEdgeStyle;html=1;exitX=0.25;exitY=1;exitDx=0;exitDy=0;entryX=0;entryY=0.5;entryDx=0;entryDy=0;endArrow=none;endFill=0;" parent="d5jiHxyTMjD3Zu9fJmXG-1" source="qUDHrIEz_biMVplgpXYU-19" target="qUDHrIEz_biMVplgpXYU-22" edge="1">
                    <mxGeometry relative="1" as="geometry"/>
                </mxCell>
                <mxCell id="qUDHrIEz_biMVplgpXYU-19" value="My Shipping" style="rounded=0;whiteSpace=wrap;html=1;aspect=fixed;fillColor=#e1d5e7;strokeColor=#9673a6;" parent="d5jiHxyTMjD3Zu9fJmXG-1" vertex="1">
                    <mxGeometry x="390" y="300" width="80" height="40" as="geometry"/>
                </mxCell>
                <mxCell id="qUDHrIEz_biMVplgpXYU-29" style="edgeStyle=orthogonalEdgeStyle;html=1;exitX=0.25;exitY=1;exitDx=0;exitDy=0;entryX=0;entryY=0.5;entryDx=0;entryDy=0;endArrow=none;endFill=0;" parent="d5jiHxyTMjD3Zu9fJmXG-1" source="qUDHrIEz_biMVplgpXYU-20" target="qUDHrIEz_biMVplgpXYU-28" edge="1">
                    <mxGeometry relative="1" as="geometry"/>
                </mxCell>
                <mxCell id="qUDHrIEz_biMVplgpXYU-31" style="edgeStyle=orthogonalEdgeStyle;html=1;exitX=0.25;exitY=1;exitDx=0;exitDy=0;entryX=0;entryY=0.5;entryDx=0;entryDy=0;endArrow=none;endFill=0;" parent="d5jiHxyTMjD3Zu9fJmXG-1" source="qUDHrIEz_biMVplgpXYU-20" target="qUDHrIEz_biMVplgpXYU-30" edge="1">
                    <mxGeometry relative="1" as="geometry"/>
                </mxCell>
                <mxCell id="qUDHrIEz_biMVplgpXYU-33" style="edgeStyle=orthogonalEdgeStyle;html=1;exitX=0.25;exitY=1;exitDx=0;exitDy=0;entryX=0;entryY=0.5;entryDx=0;entryDy=0;endArrow=none;endFill=0;" parent="d5jiHxyTMjD3Zu9fJmXG-1" source="qUDHrIEz_biMVplgpXYU-20" target="qUDHrIEz_biMVplgpXYU-32" edge="1">
                    <mxGeometry relative="1" as="geometry"/>
                </mxCell>
                <mxCell id="qUDHrIEz_biMVplgpXYU-20" value="Order table" style="rounded=0;whiteSpace=wrap;html=1;aspect=fixed;fillColor=#dae8fc;strokeColor=#6c8ebf;" parent="d5jiHxyTMjD3Zu9fJmXG-1" vertex="1">
                    <mxGeometry x="430" y="370" width="80" height="40" as="geometry"/>
                </mxCell>
                <mxCell id="qUDHrIEz_biMVplgpXYU-22" value="Search/filter" style="rounded=0;whiteSpace=wrap;html=1;aspect=fixed;fillColor=#dae8fc;strokeColor=#6c8ebf;" parent="d5jiHxyTMjD3Zu9fJmXG-1" vertex="1">
                    <mxGeometry x="430" y="650" width="80" height="40" as="geometry"/>
                </mxCell>
                <mxCell id="qUDHrIEz_biMVplgpXYU-24" value="Login" style="rounded=0;whiteSpace=wrap;html=1;aspect=fixed;fillColor=#f8cecc;strokeColor=#b85450;" parent="d5jiHxyTMjD3Zu9fJmXG-1" vertex="1">
                    <mxGeometry x="510" y="200" width="80" height="40" as="geometry"/>
                </mxCell>
                <mxCell id="qUDHrIEz_biMVplgpXYU-25" value="Register" style="rounded=0;whiteSpace=wrap;html=1;aspect=fixed;fillColor=#f8cecc;strokeColor=#b85450;" parent="d5jiHxyTMjD3Zu9fJmXG-1" vertex="1">
                    <mxGeometry x="630" y="200" width="80" height="40" as="geometry"/>
                </mxCell>
                <mxCell id="qUDHrIEz_biMVplgpXYU-26" value="Error" style="rounded=0;whiteSpace=wrap;html=1;aspect=fixed;fillColor=#f8cecc;strokeColor=#b85450;" parent="d5jiHxyTMjD3Zu9fJmXG-1" vertex="1">
                    <mxGeometry x="750" y="200" width="80" height="40" as="geometry"/>
                </mxCell>
                <mxCell id="qUDHrIEz_biMVplgpXYU-27" value="Porduct Detail" style="rounded=0;whiteSpace=wrap;html=1;aspect=fixed;fillColor=#ffe6cc;strokeColor=#d79b00;" parent="d5jiHxyTMjD3Zu9fJmXG-1" vertex="1">
                    <mxGeometry x="110" y="440" width="80" height="40" as="geometry"/>
                </mxCell>
                <mxCell id="qUDHrIEz_biMVplgpXYU-28" value="Manage Order Progress" style="rounded=0;whiteSpace=wrap;html=1;aspect=fixed;fillColor=#ffe6cc;strokeColor=#d79b00;" parent="d5jiHxyTMjD3Zu9fJmXG-1" vertex="1">
                    <mxGeometry x="470" y="440" width="80" height="40" as="geometry"/>
                </mxCell>
                <mxCell id="qUDHrIEz_biMVplgpXYU-30" value="QR code" style="rounded=0;whiteSpace=wrap;html=1;aspect=fixed;fillColor=#ffe6cc;strokeColor=#d79b00;" parent="d5jiHxyTMjD3Zu9fJmXG-1" vertex="1">
                    <mxGeometry x="470" y="510" width="80" height="40" as="geometry"/>
                </mxCell>
                <mxCell id="qUDHrIEz_biMVplgpXYU-32" value="Order item table" style="rounded=0;whiteSpace=wrap;html=1;aspect=fixed;fillColor=#ffe6cc;strokeColor=#d79b00;" parent="d5jiHxyTMjD3Zu9fJmXG-1" vertex="1">
                    <mxGeometry x="470" y="580" width="80" height="40" as="geometry"/>
                </mxCell>
                <mxCell id="qUDHrIEz_biMVplgpXYU-36" style="edgeStyle=orthogonalEdgeStyle;html=1;exitX=0.25;exitY=1;exitDx=0;exitDy=0;entryX=0;entryY=0.5;entryDx=0;entryDy=0;endArrow=none;endFill=0;" parent="d5jiHxyTMjD3Zu9fJmXG-1" source="qUDHrIEz_biMVplgpXYU-34" target="qUDHrIEz_biMVplgpXYU-35" edge="1">
                    <mxGeometry relative="1" as="geometry"/>
                </mxCell>
                <mxCell id="qUDHrIEz_biMVplgpXYU-34" value="List pending Order" style="rounded=0;whiteSpace=wrap;html=1;aspect=fixed;fillColor=#e1d5e7;strokeColor=#9673a6;" parent="d5jiHxyTMjD3Zu9fJmXG-1" vertex="1">
                    <mxGeometry x="570" y="300" width="80" height="40" as="geometry"/>
                </mxCell>
                <mxCell id="qUDHrIEz_biMVplgpXYU-40" style="edgeStyle=orthogonalEdgeStyle;html=1;exitX=0.25;exitY=1;exitDx=0;exitDy=0;entryX=0;entryY=0.5;entryDx=0;entryDy=0;endArrow=none;endFill=0;" parent="d5jiHxyTMjD3Zu9fJmXG-1" source="qUDHrIEz_biMVplgpXYU-35" target="qUDHrIEz_biMVplgpXYU-39" edge="1">
                    <mxGeometry relative="1" as="geometry"/>
                </mxCell>
                <mxCell id="qUDHrIEz_biMVplgpXYU-35" value="Order table" style="rounded=0;whiteSpace=wrap;html=1;aspect=fixed;fillColor=#dae8fc;strokeColor=#6c8ebf;" parent="d5jiHxyTMjD3Zu9fJmXG-1" vertex="1">
                    <mxGeometry x="610" y="370" width="80" height="40" as="geometry"/>
                </mxCell>
                <mxCell id="qUDHrIEz_biMVplgpXYU-39" value="Checkbox" style="rounded=0;whiteSpace=wrap;html=1;aspect=fixed;fillColor=#ffe6cc;strokeColor=#d79b00;" parent="d5jiHxyTMjD3Zu9fJmXG-1" vertex="1">
                    <mxGeometry x="650" y="440" width="80" height="40" as="geometry"/>
                </mxCell>
            </root>
        </mxGraphModel>
    </diagram>
    <diagram id="1ncq_bVQH1wM09oQZXuf" name="Seller">
        <mxGraphModel dx="990" dy="558" grid="0" gridSize="10" guides="1" tooltips="1" connect="1" arrows="1" fold="1" page="0" pageScale="1" pageWidth="850" pageHeight="1100" math="0" shadow="0">
            <root>
                <mxCell id="0uviOTkGH4taECRUjUY3-0"/>
                <mxCell id="0uviOTkGH4taECRUjUY3-1" parent="0uviOTkGH4taECRUjUY3-0"/>
                <mxCell id="jWQzP5jYn-5iCgoLrZAV-0" value="" style="edgeStyle=orthogonalEdgeStyle;rounded=1;html=1;exitX=0.5;exitY=1;exitDx=0;exitDy=0;endArrow=none;endFill=0;entryX=0.5;entryY=0;entryDx=0;entryDy=0;" edge="1" parent="0uviOTkGH4taECRUjUY3-1" source="jWQzP5jYn-5iCgoLrZAV-5" target="jWQzP5jYn-5iCgoLrZAV-12">
                    <mxGeometry relative="1" as="geometry">
                        <mxPoint x="210" y="310.0000000000001" as="targetPoint"/>
                    </mxGeometry>
                </mxCell>
                <mxCell id="jWQzP5jYn-5iCgoLrZAV-1" value="" style="edgeStyle=orthogonalEdgeStyle;rounded=1;html=1;endArrow=none;endFill=0;entryX=0.5;entryY=0;entryDx=0;entryDy=0;exitX=0.5;exitY=1;exitDx=0;exitDy=0;" edge="1" parent="0uviOTkGH4taECRUjUY3-1" source="jWQzP5jYn-5iCgoLrZAV-5" target="jWQzP5jYn-5iCgoLrZAV-8">
                    <mxGeometry relative="1" as="geometry"/>
                </mxCell>
                <mxCell id="jWQzP5jYn-5iCgoLrZAV-2" value="" style="edgeStyle=orthogonalEdgeStyle;rounded=1;html=1;exitX=0.5;exitY=1;exitDx=0;exitDy=0;endArrow=none;endFill=0;entryX=0.5;entryY=0;entryDx=0;entryDy=0;" edge="1" parent="0uviOTkGH4taECRUjUY3-1" source="jWQzP5jYn-5iCgoLrZAV-5" target="jWQzP5jYn-5iCgoLrZAV-9">
                    <mxGeometry relative="1" as="geometry">
                        <mxPoint x="670" y="320" as="targetPoint"/>
                    </mxGeometry>
                </mxCell>
                <mxCell id="jWQzP5jYn-5iCgoLrZAV-3" style="edgeStyle=orthogonalEdgeStyle;html=1;exitX=0.5;exitY=1;exitDx=0;exitDy=0;endArrow=none;endFill=0;" edge="1" parent="0uviOTkGH4taECRUjUY3-1" source="jWQzP5jYn-5iCgoLrZAV-5" target="jWQzP5jYn-5iCgoLrZAV-20">
                    <mxGeometry relative="1" as="geometry"/>
                </mxCell>
                <mxCell id="dR_74-xpeUmgDxuAIzrZ-5" style="edgeStyle=orthogonalEdgeStyle;html=1;exitX=0.5;exitY=1;exitDx=0;exitDy=0;entryX=0.5;entryY=0;entryDx=0;entryDy=0;endArrow=none;endFill=0;" edge="1" parent="0uviOTkGH4taECRUjUY3-1" source="jWQzP5jYn-5iCgoLrZAV-5" target="dR_74-xpeUmgDxuAIzrZ-2">
                    <mxGeometry relative="1" as="geometry"/>
                </mxCell>
                <mxCell id="jWQzP5jYn-5iCgoLrZAV-5" value="Homepage" style="rounded=0;whiteSpace=wrap;html=1;aspect=fixed;fillColor=#f8cecc;strokeColor=#b85450;" vertex="1" parent="0uviOTkGH4taECRUjUY3-1">
                    <mxGeometry x="390" y="200" width="80" height="40" as="geometry"/>
                </mxCell>
                <mxCell id="jWQzP5jYn-5iCgoLrZAV-6" style="edgeStyle=orthogonalEdgeStyle;html=1;exitX=0.25;exitY=1;exitDx=0;exitDy=0;entryX=0;entryY=0.5;entryDx=0;entryDy=0;endArrow=none;endFill=0;" edge="1" parent="0uviOTkGH4taECRUjUY3-1" source="jWQzP5jYn-5iCgoLrZAV-8" target="jWQzP5jYn-5iCgoLrZAV-16">
                    <mxGeometry relative="1" as="geometry"/>
                </mxCell>
                <mxCell id="jWQzP5jYn-5iCgoLrZAV-7" style="edgeStyle=orthogonalEdgeStyle;html=1;exitX=0.25;exitY=1;exitDx=0;exitDy=0;entryX=0;entryY=0.5;entryDx=0;entryDy=0;endArrow=none;endFill=0;" edge="1" parent="0uviOTkGH4taECRUjUY3-1" source="jWQzP5jYn-5iCgoLrZAV-8" target="jWQzP5jYn-5iCgoLrZAV-17">
                    <mxGeometry relative="1" as="geometry"/>
                </mxCell>
                <mxCell id="jWQzP5jYn-5iCgoLrZAV-8" value="Profile" style="rounded=0;whiteSpace=wrap;html=1;aspect=fixed;fillColor=#e1d5e7;strokeColor=#9673a6;" vertex="1" parent="0uviOTkGH4taECRUjUY3-1">
                    <mxGeometry x="210" y="300" width="80" height="40" as="geometry"/>
                </mxCell>
                <mxCell id="jWQzP5jYn-5iCgoLrZAV-9" value="Nav bar/ Sidebar" style="rounded=0;whiteSpace=wrap;html=1;aspect=fixed;fillColor=#e1d5e7;strokeColor=#9673a6;" vertex="1" parent="0uviOTkGH4taECRUjUY3-1">
                    <mxGeometry x="740" y="300" width="80" height="40" as="geometry"/>
                </mxCell>
                <mxCell id="jWQzP5jYn-5iCgoLrZAV-10" style="edgeStyle=orthogonalEdgeStyle;html=1;endArrow=none;endFill=0;entryX=0;entryY=0.5;entryDx=0;entryDy=0;exitX=0.25;exitY=1;exitDx=0;exitDy=0;" edge="1" parent="0uviOTkGH4taECRUjUY3-1" source="jWQzP5jYn-5iCgoLrZAV-12" target="jWQzP5jYn-5iCgoLrZAV-14">
                    <mxGeometry relative="1" as="geometry"/>
                </mxCell>
                <mxCell id="jWQzP5jYn-5iCgoLrZAV-11" style="edgeStyle=orthogonalEdgeStyle;html=1;exitX=0.25;exitY=1;exitDx=0;exitDy=0;entryX=0;entryY=0.5;entryDx=0;entryDy=0;endArrow=none;endFill=0;" edge="1" parent="0uviOTkGH4taECRUjUY3-1" source="jWQzP5jYn-5iCgoLrZAV-12" target="jWQzP5jYn-5iCgoLrZAV-15">
                    <mxGeometry relative="1" as="geometry"/>
                </mxCell>
                <mxCell id="jWQzP5jYn-5iCgoLrZAV-12" value="Product" style="rounded=0;whiteSpace=wrap;html=1;aspect=fixed;fillColor=#e1d5e7;strokeColor=#9673a6;" vertex="1" parent="0uviOTkGH4taECRUjUY3-1">
                    <mxGeometry x="30" y="300" width="80" height="40" as="geometry"/>
                </mxCell>
                <mxCell id="jWQzP5jYn-5iCgoLrZAV-13" style="edgeStyle=orthogonalEdgeStyle;html=1;exitX=0.25;exitY=1;exitDx=0;exitDy=0;entryX=0;entryY=0.5;entryDx=0;entryDy=0;endArrow=none;endFill=0;" edge="1" parent="0uviOTkGH4taECRUjUY3-1" source="jWQzP5jYn-5iCgoLrZAV-14" target="jWQzP5jYn-5iCgoLrZAV-29">
                    <mxGeometry relative="1" as="geometry"/>
                </mxCell>
                <mxCell id="jWQzP5jYn-5iCgoLrZAV-14" value="Porduct Card" style="rounded=0;whiteSpace=wrap;html=1;aspect=fixed;fillColor=#dae8fc;strokeColor=#6c8ebf;" vertex="1" parent="0uviOTkGH4taECRUjUY3-1">
                    <mxGeometry x="70" y="370" width="80" height="40" as="geometry"/>
                </mxCell>
                <mxCell id="jWQzP5jYn-5iCgoLrZAV-15" value="Category Carousel" style="rounded=0;whiteSpace=wrap;html=1;aspect=fixed;fillColor=#dae8fc;strokeColor=#6c8ebf;" vertex="1" parent="0uviOTkGH4taECRUjUY3-1">
                    <mxGeometry x="70" y="510" width="80" height="40" as="geometry"/>
                </mxCell>
                <mxCell id="jWQzP5jYn-5iCgoLrZAV-16" value="Edit Form" style="rounded=0;whiteSpace=wrap;html=1;aspect=fixed;fillColor=#dae8fc;strokeColor=#6c8ebf;" vertex="1" parent="0uviOTkGH4taECRUjUY3-1">
                    <mxGeometry x="250" y="370" width="80" height="40" as="geometry"/>
                </mxCell>
                <mxCell id="jWQzP5jYn-5iCgoLrZAV-17" value="Order table" style="rounded=0;whiteSpace=wrap;html=1;aspect=fixed;fillColor=#dae8fc;strokeColor=#6c8ebf;" vertex="1" parent="0uviOTkGH4taECRUjUY3-1">
                    <mxGeometry x="250" y="440" width="80" height="40" as="geometry"/>
                </mxCell>
                <mxCell id="jWQzP5jYn-5iCgoLrZAV-18" style="edgeStyle=orthogonalEdgeStyle;html=1;exitX=0.25;exitY=1;exitDx=0;exitDy=0;entryX=0;entryY=0.5;entryDx=0;entryDy=0;endArrow=none;endFill=0;" edge="1" parent="0uviOTkGH4taECRUjUY3-1" source="jWQzP5jYn-5iCgoLrZAV-20" target="jWQzP5jYn-5iCgoLrZAV-24">
                    <mxGeometry relative="1" as="geometry"/>
                </mxCell>
                <mxCell id="jWQzP5jYn-5iCgoLrZAV-19" style="edgeStyle=orthogonalEdgeStyle;html=1;exitX=0.25;exitY=1;exitDx=0;exitDy=0;entryX=0;entryY=0.5;entryDx=0;entryDy=0;endArrow=none;endFill=0;" edge="1" parent="0uviOTkGH4taECRUjUY3-1" source="jWQzP5jYn-5iCgoLrZAV-20" target="jWQzP5jYn-5iCgoLrZAV-25">
                    <mxGeometry relative="1" as="geometry"/>
                </mxCell>
                <mxCell id="jWQzP5jYn-5iCgoLrZAV-20" value="Seller" style="rounded=0;whiteSpace=wrap;html=1;aspect=fixed;fillColor=#e1d5e7;strokeColor=#9673a6;" vertex="1" parent="0uviOTkGH4taECRUjUY3-1">
                    <mxGeometry x="390" y="300" width="80" height="40" as="geometry"/>
                </mxCell>
                <mxCell id="jWQzP5jYn-5iCgoLrZAV-21" style="edgeStyle=orthogonalEdgeStyle;html=1;exitX=0.25;exitY=1;exitDx=0;exitDy=0;entryX=0;entryY=0.5;entryDx=0;entryDy=0;endArrow=none;endFill=0;" edge="1" parent="0uviOTkGH4taECRUjUY3-1" source="jWQzP5jYn-5iCgoLrZAV-24" target="jWQzP5jYn-5iCgoLrZAV-30">
                    <mxGeometry relative="1" as="geometry"/>
                </mxCell>
                <mxCell id="jWQzP5jYn-5iCgoLrZAV-22" style="edgeStyle=orthogonalEdgeStyle;html=1;exitX=0.25;exitY=1;exitDx=0;exitDy=0;entryX=0;entryY=0.5;entryDx=0;entryDy=0;endArrow=none;endFill=0;" edge="1" parent="0uviOTkGH4taECRUjUY3-1" source="jWQzP5jYn-5iCgoLrZAV-24" target="jWQzP5jYn-5iCgoLrZAV-31">
                    <mxGeometry relative="1" as="geometry"/>
                </mxCell>
                <mxCell id="jWQzP5jYn-5iCgoLrZAV-23" style="edgeStyle=orthogonalEdgeStyle;html=1;exitX=0.25;exitY=1;exitDx=0;exitDy=0;entryX=0;entryY=0.5;entryDx=0;entryDy=0;endArrow=none;endFill=0;" edge="1" parent="0uviOTkGH4taECRUjUY3-1" source="jWQzP5jYn-5iCgoLrZAV-24" target="jWQzP5jYn-5iCgoLrZAV-32">
                    <mxGeometry relative="1" as="geometry"/>
                </mxCell>
                <mxCell id="jWQzP5jYn-5iCgoLrZAV-24" value="Scanned Order table" style="rounded=0;whiteSpace=wrap;html=1;aspect=fixed;fillColor=#dae8fc;strokeColor=#6c8ebf;" vertex="1" parent="0uviOTkGH4taECRUjUY3-1">
                    <mxGeometry x="430" y="370" width="80" height="40" as="geometry"/>
                </mxCell>
                <mxCell id="jWQzP5jYn-5iCgoLrZAV-25" value="today validated table" style="rounded=0;whiteSpace=wrap;html=1;aspect=fixed;fillColor=#dae8fc;strokeColor=#6c8ebf;" vertex="1" parent="0uviOTkGH4taECRUjUY3-1">
                    <mxGeometry x="430" y="650" width="80" height="40" as="geometry"/>
                </mxCell>
                <mxCell id="jWQzP5jYn-5iCgoLrZAV-26" value="Login" style="rounded=0;whiteSpace=wrap;html=1;aspect=fixed;fillColor=#f8cecc;strokeColor=#b85450;" vertex="1" parent="0uviOTkGH4taECRUjUY3-1">
                    <mxGeometry x="510" y="200" width="80" height="40" as="geometry"/>
                </mxCell>
                <mxCell id="jWQzP5jYn-5iCgoLrZAV-27" value="Register" style="rounded=0;whiteSpace=wrap;html=1;aspect=fixed;fillColor=#f8cecc;strokeColor=#b85450;" vertex="1" parent="0uviOTkGH4taECRUjUY3-1">
                    <mxGeometry x="630" y="200" width="80" height="40" as="geometry"/>
                </mxCell>
                <mxCell id="jWQzP5jYn-5iCgoLrZAV-28" value="Error" style="rounded=0;whiteSpace=wrap;html=1;aspect=fixed;fillColor=#f8cecc;strokeColor=#b85450;" vertex="1" parent="0uviOTkGH4taECRUjUY3-1">
                    <mxGeometry x="750" y="200" width="80" height="40" as="geometry"/>
                </mxCell>
                <mxCell id="jWQzP5jYn-5iCgoLrZAV-29" value="Porduct Detail" style="rounded=0;whiteSpace=wrap;html=1;aspect=fixed;fillColor=#ffe6cc;strokeColor=#d79b00;" vertex="1" parent="0uviOTkGH4taECRUjUY3-1">
                    <mxGeometry x="110" y="440" width="80" height="40" as="geometry"/>
                </mxCell>
                <mxCell id="jWQzP5jYn-5iCgoLrZAV-30" value="Checkbox" style="rounded=0;whiteSpace=wrap;html=1;aspect=fixed;fillColor=#ffe6cc;strokeColor=#d79b00;" vertex="1" parent="0uviOTkGH4taECRUjUY3-1">
                    <mxGeometry x="470" y="440" width="80" height="40" as="geometry"/>
                </mxCell>
                <mxCell id="jWQzP5jYn-5iCgoLrZAV-31" value="Camera" style="rounded=0;whiteSpace=wrap;html=1;aspect=fixed;fillColor=#ffe6cc;strokeColor=#d79b00;" vertex="1" parent="0uviOTkGH4taECRUjUY3-1">
                    <mxGeometry x="470" y="510" width="80" height="40" as="geometry"/>
                </mxCell>
                <mxCell id="jWQzP5jYn-5iCgoLrZAV-32" value="Order item table" style="rounded=0;whiteSpace=wrap;html=1;aspect=fixed;fillColor=#ffe6cc;strokeColor=#d79b00;" vertex="1" parent="0uviOTkGH4taECRUjUY3-1">
                    <mxGeometry x="470" y="580" width="80" height="40" as="geometry"/>
                </mxCell>
                <mxCell id="dR_74-xpeUmgDxuAIzrZ-0" style="edgeStyle=orthogonalEdgeStyle;html=1;exitX=0.25;exitY=1;exitDx=0;exitDy=0;entryX=0;entryY=0.5;entryDx=0;entryDy=0;endArrow=none;endFill=0;" edge="1" parent="0uviOTkGH4taECRUjUY3-1" source="dR_74-xpeUmgDxuAIzrZ-2" target="dR_74-xpeUmgDxuAIzrZ-3">
                    <mxGeometry relative="1" as="geometry"/>
                </mxCell>
                <mxCell id="dR_74-xpeUmgDxuAIzrZ-1" style="edgeStyle=orthogonalEdgeStyle;html=1;exitX=0.25;exitY=1;exitDx=0;exitDy=0;entryX=0;entryY=0.5;entryDx=0;entryDy=0;endArrow=none;endFill=0;" edge="1" parent="0uviOTkGH4taECRUjUY3-1" source="dR_74-xpeUmgDxuAIzrZ-2" target="dR_74-xpeUmgDxuAIzrZ-4">
                    <mxGeometry relative="1" as="geometry"/>
                </mxCell>
                <mxCell id="dR_74-xpeUmgDxuAIzrZ-2" value="Dashboard" style="rounded=0;whiteSpace=wrap;html=1;aspect=fixed;fillColor=#e1d5e7;strokeColor=#9673a6;" vertex="1" parent="0uviOTkGH4taECRUjUY3-1">
                    <mxGeometry x="567" y="300" width="80" height="40" as="geometry"/>
                </mxCell>
                <mxCell id="dR_74-xpeUmgDxuAIzrZ-3" value="Ratio widgets" style="rounded=0;whiteSpace=wrap;html=1;aspect=fixed;fillColor=#dae8fc;strokeColor=#6c8ebf;" vertex="1" parent="0uviOTkGH4taECRUjUY3-1">
                    <mxGeometry x="607" y="370" width="80" height="40" as="geometry"/>
                </mxCell>
                <mxCell id="dR_74-xpeUmgDxuAIzrZ-4" value="Top Sold Product table" style="rounded=0;whiteSpace=wrap;html=1;aspect=fixed;fillColor=#dae8fc;strokeColor=#6c8ebf;" vertex="1" parent="0uviOTkGH4taECRUjUY3-1">
                    <mxGeometry x="607" y="440" width="80" height="40" as="geometry"/>
                </mxCell>
            </root>
        </mxGraphModel>
    </diagram>
    <diagram id="BnAW0ToIBS0f8LMeZGpG" name="Cart">
        <mxGraphModel dx="1230" dy="558" grid="1" gridSize="10" guides="1" tooltips="1" connect="1" arrows="1" fold="1" page="1" pageScale="1" pageWidth="850" pageHeight="1100" math="0" shadow="0">
            <root>
                <mxCell id="Cr1nmi5x9FSmXIC6Ehjg-0"/>
                <mxCell id="Cr1nmi5x9FSmXIC6Ehjg-1" parent="Cr1nmi5x9FSmXIC6Ehjg-0"/>
                <mxCell id="72776kDD4pGgXJunNHRI-2" value="" style="edgeStyle=none;rounded=1;html=1;exitX=0.5;exitY=1;exitDx=0;exitDy=0;endArrow=none;endFill=0;" parent="Cr1nmi5x9FSmXIC6Ehjg-1" source="72776kDD4pGgXJunNHRI-0" target="72776kDD4pGgXJunNHRI-1" edge="1">
                    <mxGeometry relative="1" as="geometry">
                        <Array as="points">
                            <mxPoint x="410" y="280"/>
                            <mxPoint x="210" y="280"/>
                        </Array>
                    </mxGeometry>
                </mxCell>
                <mxCell id="72776kDD4pGgXJunNHRI-4" value="" style="edgeStyle=none;rounded=1;html=1;endArrow=none;endFill=0;" parent="Cr1nmi5x9FSmXIC6Ehjg-1" source="72776kDD4pGgXJunNHRI-0" target="72776kDD4pGgXJunNHRI-3" edge="1">
                    <mxGeometry relative="1" as="geometry"/>
                </mxCell>
                <mxCell id="72776kDD4pGgXJunNHRI-7" value="" style="edgeStyle=none;rounded=1;html=1;exitX=0.5;exitY=1;exitDx=0;exitDy=0;endArrow=none;endFill=0;" parent="Cr1nmi5x9FSmXIC6Ehjg-1" source="72776kDD4pGgXJunNHRI-0" target="1jxDklExN2aXaunlU6wJ-3" edge="1">
                    <mxGeometry relative="1" as="geometry">
                        <mxPoint x="670" y="320" as="targetPoint"/>
                        <Array as="points">
                            <mxPoint x="410" y="280"/>
                            <mxPoint x="610" y="280"/>
                        </Array>
                    </mxGeometry>
                </mxCell>
                <mxCell id="72776kDD4pGgXJunNHRI-0" value="Cart page" style="rounded=0;whiteSpace=wrap;html=1;aspect=fixed;" parent="Cr1nmi5x9FSmXIC6Ehjg-1" vertex="1">
                    <mxGeometry x="370" y="200" width="80" height="40" as="geometry"/>
                </mxCell>
                <mxCell id="Dagw1_YwGMPLhAiMWDzE-1" value="" style="edgeStyle=none;rounded=1;html=1;exitX=0.25;exitY=1;exitDx=0;exitDy=0;endArrow=none;endFill=0;" parent="Cr1nmi5x9FSmXIC6Ehjg-1" source="72776kDD4pGgXJunNHRI-1" target="Dagw1_YwGMPLhAiMWDzE-0" edge="1">
                    <mxGeometry relative="1" as="geometry">
                        <Array as="points">
                            <mxPoint x="190" y="400"/>
                        </Array>
                    </mxGeometry>
                </mxCell>
                <mxCell id="72776kDD4pGgXJunNHRI-1" value="Product List" style="rounded=0;whiteSpace=wrap;html=1;aspect=fixed;" parent="Cr1nmi5x9FSmXIC6Ehjg-1" vertex="1">
                    <mxGeometry x="170" y="310" width="80" height="40" as="geometry"/>
                </mxCell>
                <mxCell id="Dagw1_YwGMPLhAiMWDzE-9" value="" style="edgeStyle=none;rounded=1;html=1;exitX=0.25;exitY=1;exitDx=0;exitDy=0;endArrow=none;endFill=0;" parent="Cr1nmi5x9FSmXIC6Ehjg-1" source="72776kDD4pGgXJunNHRI-3" target="Dagw1_YwGMPLhAiMWDzE-8" edge="1">
                    <mxGeometry relative="1" as="geometry">
                        <Array as="points">
                            <mxPoint x="390" y="400"/>
                        </Array>
                    </mxGeometry>
                </mxCell>
                <mxCell id="Dagw1_YwGMPLhAiMWDzE-11" value="" style="edgeStyle=none;rounded=1;html=1;exitX=0.25;exitY=1;exitDx=0;exitDy=0;endArrow=none;endFill=0;" parent="Cr1nmi5x9FSmXIC6Ehjg-1" source="72776kDD4pGgXJunNHRI-3" target="Dagw1_YwGMPLhAiMWDzE-10" edge="1">
                    <mxGeometry relative="1" as="geometry">
                        <Array as="points">
                            <mxPoint x="390" y="470"/>
                        </Array>
                    </mxGeometry>
                </mxCell>
                <mxCell id="72776kDD4pGgXJunNHRI-3" value="Total Form" style="rounded=0;whiteSpace=wrap;html=1;aspect=fixed;" parent="Cr1nmi5x9FSmXIC6Ehjg-1" vertex="1">
                    <mxGeometry x="370" y="310" width="80" height="40" as="geometry"/>
                </mxCell>
                <mxCell id="Dagw1_YwGMPLhAiMWDzE-3" value="" style="edgeStyle=none;rounded=1;html=1;exitX=0.25;exitY=1;exitDx=0;exitDy=0;endArrow=none;endFill=0;" parent="Cr1nmi5x9FSmXIC6Ehjg-1" source="Dagw1_YwGMPLhAiMWDzE-0" target="Dagw1_YwGMPLhAiMWDzE-2" edge="1">
                    <mxGeometry relative="1" as="geometry">
                        <Array as="points">
                            <mxPoint x="230" y="470"/>
                        </Array>
                    </mxGeometry>
                </mxCell>
                <mxCell id="Dagw1_YwGMPLhAiMWDzE-5" value="" style="edgeStyle=none;rounded=1;html=1;exitX=0.25;exitY=1;exitDx=0;exitDy=0;endArrow=none;endFill=0;" parent="Cr1nmi5x9FSmXIC6Ehjg-1" source="Dagw1_YwGMPLhAiMWDzE-0" target="Dagw1_YwGMPLhAiMWDzE-4" edge="1">
                    <mxGeometry relative="1" as="geometry">
                        <Array as="points">
                            <mxPoint x="230" y="540"/>
                        </Array>
                    </mxGeometry>
                </mxCell>
                <mxCell id="Dagw1_YwGMPLhAiMWDzE-7" value="" style="edgeStyle=none;rounded=1;html=1;exitX=0.25;exitY=1;exitDx=0;exitDy=0;endArrow=none;endFill=0;" parent="Cr1nmi5x9FSmXIC6Ehjg-1" source="Dagw1_YwGMPLhAiMWDzE-0" target="Dagw1_YwGMPLhAiMWDzE-6" edge="1">
                    <mxGeometry relative="1" as="geometry">
                        <Array as="points">
                            <mxPoint x="230" y="610"/>
                        </Array>
                    </mxGeometry>
                </mxCell>
                <mxCell id="Dagw1_YwGMPLhAiMWDzE-0" value="Cart Item" style="rounded=0;whiteSpace=wrap;html=1;aspect=fixed;" parent="Cr1nmi5x9FSmXIC6Ehjg-1" vertex="1">
                    <mxGeometry x="210" y="380" width="80" height="40" as="geometry"/>
                </mxCell>
                <mxCell id="Dagw1_YwGMPLhAiMWDzE-2" value="Product info" style="rounded=0;whiteSpace=wrap;html=1;aspect=fixed;" parent="Cr1nmi5x9FSmXIC6Ehjg-1" vertex="1">
                    <mxGeometry x="250" y="450" width="80" height="40" as="geometry"/>
                </mxCell>
                <mxCell id="Dagw1_YwGMPLhAiMWDzE-4" value="In/Decrement Quanity" style="rounded=0;whiteSpace=wrap;html=1;aspect=fixed;" parent="Cr1nmi5x9FSmXIC6Ehjg-1" vertex="1">
                    <mxGeometry x="250" y="520" width="80" height="40" as="geometry"/>
                </mxCell>
                <mxCell id="Dagw1_YwGMPLhAiMWDzE-6" value="Delete Cart Item" style="rounded=0;whiteSpace=wrap;html=1;aspect=fixed;" parent="Cr1nmi5x9FSmXIC6Ehjg-1" vertex="1">
                    <mxGeometry x="250" y="590" width="80" height="40" as="geometry"/>
                </mxCell>
                <mxCell id="Dagw1_YwGMPLhAiMWDzE-8" value="Cart info" style="rounded=0;whiteSpace=wrap;html=1;aspect=fixed;" parent="Cr1nmi5x9FSmXIC6Ehjg-1" vertex="1">
                    <mxGeometry x="410" y="380" width="80" height="40" as="geometry"/>
                </mxCell>
                <mxCell id="Dagw1_YwGMPLhAiMWDzE-13" value="" style="edgeStyle=none;rounded=1;html=1;exitX=0.25;exitY=1;exitDx=0;exitDy=0;endArrow=none;endFill=0;" parent="Cr1nmi5x9FSmXIC6Ehjg-1" source="Dagw1_YwGMPLhAiMWDzE-10" target="Dagw1_YwGMPLhAiMWDzE-12" edge="1">
                    <mxGeometry relative="1" as="geometry">
                        <Array as="points">
                            <mxPoint x="430" y="540"/>
                        </Array>
                    </mxGeometry>
                </mxCell>
                <mxCell id="Dagw1_YwGMPLhAiMWDzE-10" value="Checkout Button" style="rounded=0;whiteSpace=wrap;html=1;aspect=fixed;" parent="Cr1nmi5x9FSmXIC6Ehjg-1" vertex="1">
                    <mxGeometry x="410" y="450" width="80" height="40" as="geometry"/>
                </mxCell>
                <mxCell id="Dagw1_YwGMPLhAiMWDzE-15" value="" style="edgeStyle=none;rounded=1;html=1;exitX=0.25;exitY=1;exitDx=0;exitDy=0;endArrow=none;endFill=0;" parent="Cr1nmi5x9FSmXIC6Ehjg-1" source="Dagw1_YwGMPLhAiMWDzE-12" target="Dagw1_YwGMPLhAiMWDzE-14" edge="1">
                    <mxGeometry relative="1" as="geometry">
                        <Array as="points">
                            <mxPoint x="470" y="610"/>
                        </Array>
                    </mxGeometry>
                </mxCell>
                <mxCell id="Jqfp67AaQ53lTFeAnorH-1" value="" style="edgeStyle=none;rounded=1;html=1;exitX=0.25;exitY=1;exitDx=0;exitDy=0;endArrow=none;endFill=0;" parent="Cr1nmi5x9FSmXIC6Ehjg-1" source="Dagw1_YwGMPLhAiMWDzE-12" target="Jqfp67AaQ53lTFeAnorH-0" edge="1">
                    <mxGeometry relative="1" as="geometry">
                        <Array as="points">
                            <mxPoint x="470" y="680"/>
                        </Array>
                    </mxGeometry>
                </mxCell>
                <mxCell id="Dagw1_YwGMPLhAiMWDzE-12" value="Checkout Form" style="rounded=0;whiteSpace=wrap;html=1;aspect=fixed;" parent="Cr1nmi5x9FSmXIC6Ehjg-1" vertex="1">
                    <mxGeometry x="450" y="520" width="80" height="40" as="geometry"/>
                </mxCell>
                <mxCell id="Dagw1_YwGMPLhAiMWDzE-14" value="Google Map" style="rounded=0;whiteSpace=wrap;html=1;aspect=fixed;" parent="Cr1nmi5x9FSmXIC6Ehjg-1" vertex="1">
                    <mxGeometry x="490" y="590" width="80" height="40" as="geometry"/>
                </mxCell>
                <mxCell id="Jqfp67AaQ53lTFeAnorH-0" value="Submit button" style="rounded=0;whiteSpace=wrap;html=1;aspect=fixed;" parent="Cr1nmi5x9FSmXIC6Ehjg-1" vertex="1">
                    <mxGeometry x="490" y="660" width="80" height="40" as="geometry"/>
                </mxCell>
                <mxCell id="1jxDklExN2aXaunlU6wJ-0" value="" style="edgeStyle=none;rounded=1;html=1;exitX=0.25;exitY=1;exitDx=0;exitDy=0;endArrow=none;endFill=0;" parent="Cr1nmi5x9FSmXIC6Ehjg-1" source="1jxDklExN2aXaunlU6wJ-3" target="1jxDklExN2aXaunlU6wJ-4" edge="1">
                    <mxGeometry relative="1" as="geometry">
                        <Array as="points">
                            <mxPoint x="590" y="400"/>
                        </Array>
                    </mxGeometry>
                </mxCell>
                <mxCell id="1jxDklExN2aXaunlU6wJ-1" style="edgeStyle=none;rounded=1;html=1;entryX=0;entryY=0.5;entryDx=0;entryDy=0;exitX=0.25;exitY=1;exitDx=0;exitDy=0;endArrow=none;endFill=0;" parent="Cr1nmi5x9FSmXIC6Ehjg-1" source="1jxDklExN2aXaunlU6wJ-3" target="1jxDklExN2aXaunlU6wJ-5" edge="1">
                    <mxGeometry relative="1" as="geometry">
                        <Array as="points">
                            <mxPoint x="590" y="470"/>
                        </Array>
                    </mxGeometry>
                </mxCell>
                <mxCell id="1jxDklExN2aXaunlU6wJ-2" style="edgeStyle=none;rounded=1;html=1;exitX=0.25;exitY=1;exitDx=0;exitDy=0;entryX=0;entryY=0.5;entryDx=0;entryDy=0;endArrow=none;endFill=0;" parent="Cr1nmi5x9FSmXIC6Ehjg-1" source="1jxDklExN2aXaunlU6wJ-3" target="1jxDklExN2aXaunlU6wJ-6" edge="1">
                    <mxGeometry relative="1" as="geometry">
                        <Array as="points">
                            <mxPoint x="590" y="540"/>
                        </Array>
                    </mxGeometry>
                </mxCell>
                <mxCell id="1jxDklExN2aXaunlU6wJ-3" value="Nav bar" style="rounded=0;whiteSpace=wrap;html=1;aspect=fixed;" parent="Cr1nmi5x9FSmXIC6Ehjg-1" vertex="1">
                    <mxGeometry x="570" y="310" width="80" height="40" as="geometry"/>
                </mxCell>
                <mxCell id="1jxDklExN2aXaunlU6wJ-4" value="Nav Button" style="rounded=0;whiteSpace=wrap;html=1;aspect=fixed;" parent="Cr1nmi5x9FSmXIC6Ehjg-1" vertex="1">
                    <mxGeometry x="610" y="380" width="80" height="40" as="geometry"/>
                </mxCell>
                <mxCell id="1jxDklExN2aXaunlU6wJ-5" value="Search" style="rounded=0;whiteSpace=wrap;html=1;aspect=fixed;" parent="Cr1nmi5x9FSmXIC6Ehjg-1" vertex="1">
                    <mxGeometry x="610" y="450" width="80" height="40" as="geometry"/>
                </mxCell>
                <mxCell id="1jxDklExN2aXaunlU6wJ-6" value="Cart" style="rounded=0;whiteSpace=wrap;html=1;aspect=fixed;" parent="Cr1nmi5x9FSmXIC6Ehjg-1" vertex="1">
                    <mxGeometry x="610" y="520" width="80" height="40" as="geometry"/>
                </mxCell>
            </root>
        </mxGraphModel>
    </diagram>
    <diagram id="Xo6PjI1vRXtpMC8XeyWF" name="Profile">
        <mxGraphModel dx="1230" dy="558" grid="1" gridSize="10" guides="1" tooltips="1" connect="1" arrows="1" fold="1" page="1" pageScale="1" pageWidth="850" pageHeight="1100" math="0" shadow="0">
            <root>
                <mxCell id="AeTEt6VssOGIOy5aN8TS-0"/>
                <mxCell id="AeTEt6VssOGIOy5aN8TS-1" parent="AeTEt6VssOGIOy5aN8TS-0"/>
                <mxCell id="adF3CLGwUXTJ7WhBEn61-0" value="" style="edgeStyle=none;rounded=1;html=1;exitX=0.5;exitY=1;exitDx=0;exitDy=0;endArrow=none;endFill=0;entryX=0.5;entryY=0;entryDx=0;entryDy=0;" parent="AeTEt6VssOGIOy5aN8TS-1" source="adF3CLGwUXTJ7WhBEn61-3" target="adF3CLGwUXTJ7WhBEn61-34" edge="1">
                    <mxGeometry relative="1" as="geometry">
                        <Array as="points">
                            <mxPoint x="390" y="200"/>
                            <mxPoint x="190" y="200"/>
                        </Array>
                        <mxPoint x="130" y="240" as="targetPoint"/>
                    </mxGeometry>
                </mxCell>
                <mxCell id="adF3CLGwUXTJ7WhBEn61-1" value="" style="edgeStyle=none;rounded=1;html=1;endArrow=none;endFill=0;" parent="AeTEt6VssOGIOy5aN8TS-1" source="adF3CLGwUXTJ7WhBEn61-3" target="adF3CLGwUXTJ7WhBEn61-8" edge="1">
                    <mxGeometry relative="1" as="geometry"/>
                </mxCell>
                <mxCell id="adF3CLGwUXTJ7WhBEn61-2" value="" style="edgeStyle=none;rounded=1;html=1;exitX=0.5;exitY=1;exitDx=0;exitDy=0;endArrow=none;endFill=0;entryX=0.5;entryY=0;entryDx=0;entryDy=0;" parent="AeTEt6VssOGIOy5aN8TS-1" source="adF3CLGwUXTJ7WhBEn61-3" target="adF3CLGwUXTJ7WhBEn61-27" edge="1">
                    <mxGeometry relative="1" as="geometry">
                        <mxPoint x="650" y="240" as="targetPoint"/>
                        <Array as="points">
                            <mxPoint x="390" y="200"/>
                            <mxPoint x="590" y="200"/>
                        </Array>
                    </mxGeometry>
                </mxCell>
                <mxCell id="adF3CLGwUXTJ7WhBEn61-3" value="Profile page" style="rounded=0;whiteSpace=wrap;html=1;aspect=fixed;" parent="AeTEt6VssOGIOy5aN8TS-1" vertex="1">
                    <mxGeometry x="350" y="130" width="80" height="40" as="geometry"/>
                </mxCell>
                <mxCell id="adF3CLGwUXTJ7WhBEn61-6" value="" style="edgeStyle=none;rounded=1;html=1;exitX=0.25;exitY=1;exitDx=0;exitDy=0;endArrow=none;endFill=0;" parent="AeTEt6VssOGIOy5aN8TS-1" source="adF3CLGwUXTJ7WhBEn61-8" target="adF3CLGwUXTJ7WhBEn61-16" edge="1">
                    <mxGeometry relative="1" as="geometry">
                        <Array as="points">
                            <mxPoint x="370" y="320"/>
                        </Array>
                    </mxGeometry>
                </mxCell>
                <mxCell id="adF3CLGwUXTJ7WhBEn61-7" value="" style="edgeStyle=none;rounded=1;html=1;exitX=0.25;exitY=1;exitDx=0;exitDy=0;endArrow=none;endFill=0;" parent="AeTEt6VssOGIOy5aN8TS-1" source="adF3CLGwUXTJ7WhBEn61-8" target="adF3CLGwUXTJ7WhBEn61-18" edge="1">
                    <mxGeometry relative="1" as="geometry">
                        <Array as="points">
                            <mxPoint x="370" y="390"/>
                        </Array>
                    </mxGeometry>
                </mxCell>
                <mxCell id="adF3CLGwUXTJ7WhBEn61-8" value="User Orders" style="rounded=0;whiteSpace=wrap;html=1;aspect=fixed;" parent="AeTEt6VssOGIOy5aN8TS-1" vertex="1">
                    <mxGeometry x="350" y="230" width="80" height="40" as="geometry"/>
                </mxCell>
                <mxCell id="adF3CLGwUXTJ7WhBEn61-16" value="Filter/Search Order" style="rounded=0;whiteSpace=wrap;html=1;aspect=fixed;" parent="AeTEt6VssOGIOy5aN8TS-1" vertex="1">
                    <mxGeometry x="390" y="300" width="80" height="40" as="geometry"/>
                </mxCell>
                <mxCell id="adF3CLGwUXTJ7WhBEn61-17" value="" style="edgeStyle=none;rounded=1;html=1;exitX=0.25;exitY=1;exitDx=0;exitDy=0;endArrow=none;endFill=0;" parent="AeTEt6VssOGIOy5aN8TS-1" source="adF3CLGwUXTJ7WhBEn61-18" target="adF3CLGwUXTJ7WhBEn61-21" edge="1">
                    <mxGeometry relative="1" as="geometry">
                        <Array as="points">
                            <mxPoint x="410" y="460"/>
                        </Array>
                    </mxGeometry>
                </mxCell>
                <mxCell id="adF3CLGwUXTJ7WhBEn61-18" value="Order table" style="rounded=0;whiteSpace=wrap;html=1;aspect=fixed;" parent="AeTEt6VssOGIOy5aN8TS-1" vertex="1">
                    <mxGeometry x="390" y="370" width="80" height="40" as="geometry"/>
                </mxCell>
                <mxCell id="adF3CLGwUXTJ7WhBEn61-19" value="" style="edgeStyle=none;rounded=1;html=1;exitX=0.25;exitY=1;exitDx=0;exitDy=0;endArrow=none;endFill=0;" parent="AeTEt6VssOGIOy5aN8TS-1" source="adF3CLGwUXTJ7WhBEn61-21" target="adF3CLGwUXTJ7WhBEn61-22" edge="1">
                    <mxGeometry relative="1" as="geometry">
                        <Array as="points">
                            <mxPoint x="450" y="530"/>
                        </Array>
                    </mxGeometry>
                </mxCell>
                <mxCell id="adF3CLGwUXTJ7WhBEn61-20" value="" style="edgeStyle=none;rounded=1;html=1;exitX=0.25;exitY=1;exitDx=0;exitDy=0;endArrow=none;endFill=0;" parent="AeTEt6VssOGIOy5aN8TS-1" source="adF3CLGwUXTJ7WhBEn61-21" target="adF3CLGwUXTJ7WhBEn61-23" edge="1">
                    <mxGeometry relative="1" as="geometry">
                        <Array as="points">
                            <mxPoint x="450" y="600"/>
                        </Array>
                    </mxGeometry>
                </mxCell>
                <mxCell id="adF3CLGwUXTJ7WhBEn61-21" value="table row" style="rounded=0;whiteSpace=wrap;html=1;aspect=fixed;" parent="AeTEt6VssOGIOy5aN8TS-1" vertex="1">
                    <mxGeometry x="430" y="440" width="80" height="40" as="geometry"/>
                </mxCell>
                <mxCell id="adF3CLGwUXTJ7WhBEn61-22" value="order info" style="rounded=0;whiteSpace=wrap;html=1;aspect=fixed;" parent="AeTEt6VssOGIOy5aN8TS-1" vertex="1">
                    <mxGeometry x="470" y="510" width="80" height="40" as="geometry"/>
                </mxCell>
                <mxCell id="adF3CLGwUXTJ7WhBEn61-23" value="Cancel/View order" style="rounded=0;whiteSpace=wrap;html=1;aspect=fixed;" parent="AeTEt6VssOGIOy5aN8TS-1" vertex="1">
                    <mxGeometry x="470" y="580" width="80" height="40" as="geometry"/>
                </mxCell>
                <mxCell id="adF3CLGwUXTJ7WhBEn61-24" value="" style="edgeStyle=none;rounded=1;html=1;exitX=0.25;exitY=1;exitDx=0;exitDy=0;endArrow=none;endFill=0;" parent="AeTEt6VssOGIOy5aN8TS-1" source="adF3CLGwUXTJ7WhBEn61-27" target="adF3CLGwUXTJ7WhBEn61-28" edge="1">
                    <mxGeometry relative="1" as="geometry">
                        <Array as="points">
                            <mxPoint x="570" y="320"/>
                        </Array>
                    </mxGeometry>
                </mxCell>
                <mxCell id="adF3CLGwUXTJ7WhBEn61-25" style="edgeStyle=none;rounded=1;html=1;entryX=0;entryY=0.5;entryDx=0;entryDy=0;exitX=0.25;exitY=1;exitDx=0;exitDy=0;endArrow=none;endFill=0;" parent="AeTEt6VssOGIOy5aN8TS-1" source="adF3CLGwUXTJ7WhBEn61-27" target="adF3CLGwUXTJ7WhBEn61-29" edge="1">
                    <mxGeometry relative="1" as="geometry">
                        <Array as="points">
                            <mxPoint x="570" y="390"/>
                        </Array>
                    </mxGeometry>
                </mxCell>
                <mxCell id="adF3CLGwUXTJ7WhBEn61-26" style="edgeStyle=none;rounded=1;html=1;exitX=0.25;exitY=1;exitDx=0;exitDy=0;entryX=0;entryY=0.5;entryDx=0;entryDy=0;endArrow=none;endFill=0;" parent="AeTEt6VssOGIOy5aN8TS-1" source="adF3CLGwUXTJ7WhBEn61-27" target="adF3CLGwUXTJ7WhBEn61-30" edge="1">
                    <mxGeometry relative="1" as="geometry">
                        <Array as="points">
                            <mxPoint x="570" y="460"/>
                        </Array>
                    </mxGeometry>
                </mxCell>
                <mxCell id="adF3CLGwUXTJ7WhBEn61-27" value="Nav bar" style="rounded=0;whiteSpace=wrap;html=1;aspect=fixed;" parent="AeTEt6VssOGIOy5aN8TS-1" vertex="1">
                    <mxGeometry x="550" y="230" width="80" height="40" as="geometry"/>
                </mxCell>
                <mxCell id="adF3CLGwUXTJ7WhBEn61-28" value="Nav Button" style="rounded=0;whiteSpace=wrap;html=1;aspect=fixed;" parent="AeTEt6VssOGIOy5aN8TS-1" vertex="1">
                    <mxGeometry x="590" y="300" width="80" height="40" as="geometry"/>
                </mxCell>
                <mxCell id="adF3CLGwUXTJ7WhBEn61-29" value="Search" style="rounded=0;whiteSpace=wrap;html=1;aspect=fixed;" parent="AeTEt6VssOGIOy5aN8TS-1" vertex="1">
                    <mxGeometry x="590" y="370" width="80" height="40" as="geometry"/>
                </mxCell>
                <mxCell id="adF3CLGwUXTJ7WhBEn61-30" value="Cart" style="rounded=0;whiteSpace=wrap;html=1;aspect=fixed;" parent="AeTEt6VssOGIOy5aN8TS-1" vertex="1">
                    <mxGeometry x="590" y="440" width="80" height="40" as="geometry"/>
                </mxCell>
                <mxCell id="adF3CLGwUXTJ7WhBEn61-31" value="" style="edgeStyle=none;rounded=1;html=1;exitX=0.25;exitY=1;exitDx=0;exitDy=0;endArrow=none;endFill=0;" parent="AeTEt6VssOGIOy5aN8TS-1" source="adF3CLGwUXTJ7WhBEn61-34" target="adF3CLGwUXTJ7WhBEn61-35" edge="1">
                    <mxGeometry relative="1" as="geometry">
                        <Array as="points">
                            <mxPoint x="170" y="320"/>
                        </Array>
                    </mxGeometry>
                </mxCell>
                <mxCell id="adF3CLGwUXTJ7WhBEn61-32" style="edgeStyle=none;rounded=1;html=1;entryX=0;entryY=0.5;entryDx=0;entryDy=0;exitX=0.25;exitY=1;exitDx=0;exitDy=0;endArrow=none;endFill=0;" parent="AeTEt6VssOGIOy5aN8TS-1" source="adF3CLGwUXTJ7WhBEn61-34" target="adF3CLGwUXTJ7WhBEn61-36" edge="1">
                    <mxGeometry relative="1" as="geometry">
                        <Array as="points">
                            <mxPoint x="170" y="390"/>
                        </Array>
                    </mxGeometry>
                </mxCell>
                <mxCell id="adF3CLGwUXTJ7WhBEn61-34" value="Profile modal" style="rounded=0;whiteSpace=wrap;html=1;aspect=fixed;" parent="AeTEt6VssOGIOy5aN8TS-1" vertex="1">
                    <mxGeometry x="150" y="230" width="80" height="40" as="geometry"/>
                </mxCell>
                <mxCell id="adF3CLGwUXTJ7WhBEn61-35" value="Profile info" style="rounded=0;whiteSpace=wrap;html=1;aspect=fixed;" parent="AeTEt6VssOGIOy5aN8TS-1" vertex="1">
                    <mxGeometry x="190" y="300" width="80" height="40" as="geometry"/>
                </mxCell>
                <mxCell id="adF3CLGwUXTJ7WhBEn61-36" value="Update Profile button" style="rounded=0;whiteSpace=wrap;html=1;aspect=fixed;" parent="AeTEt6VssOGIOy5aN8TS-1" vertex="1">
                    <mxGeometry x="190" y="370" width="80" height="40" as="geometry"/>
                </mxCell>
            </root>
        </mxGraphModel>
    </diagram>
    <diagram id="AekAmxUYSiNdOOu2LilA" name="Product Management">
        <mxGraphModel dx="990" dy="558" grid="1" gridSize="10" guides="1" tooltips="1" connect="1" arrows="1" fold="1" page="1" pageScale="1" pageWidth="850" pageHeight="1100" math="0" shadow="0">
            <root>
                <mxCell id="Pevl4Q1n1Z4yB1_JU74O-0"/>
                <mxCell id="Pevl4Q1n1Z4yB1_JU74O-1" parent="Pevl4Q1n1Z4yB1_JU74O-0"/>
                <mxCell id="HshRuz8ZsltgKaOYlfLi-19" value="" style="edgeStyle=none;html=1;rounded=1;endArrow=none;endFill=0;" parent="Pevl4Q1n1Z4yB1_JU74O-1" source="HshRuz8ZsltgKaOYlfLi-22" target="HshRuz8ZsltgKaOYlfLi-24" edge="1">
                    <mxGeometry relative="1" as="geometry">
                        <Array as="points">
                            <mxPoint x="390" y="170"/>
                            <mxPoint x="190" y="170"/>
                        </Array>
                    </mxGeometry>
                </mxCell>
                <mxCell id="HshRuz8ZsltgKaOYlfLi-20" value="" style="edgeStyle=none;html=1;entryX=0.5;entryY=0;entryDx=0;entryDy=0;endArrow=none;endFill=0;" parent="Pevl4Q1n1Z4yB1_JU74O-1" source="HshRuz8ZsltgKaOYlfLi-22" target="HshRuz8ZsltgKaOYlfLi-27" edge="1">
                    <mxGeometry relative="1" as="geometry"/>
                </mxCell>
                <mxCell id="HshRuz8ZsltgKaOYlfLi-21" value="" style="edgeStyle=none;html=1;endArrow=none;endFill=0;" parent="Pevl4Q1n1Z4yB1_JU74O-1" source="HshRuz8ZsltgKaOYlfLi-22" target="HshRuz8ZsltgKaOYlfLi-31" edge="1">
                    <mxGeometry relative="1" as="geometry">
                        <Array as="points">
                            <mxPoint x="390" y="170"/>
                            <mxPoint x="590" y="170"/>
                        </Array>
                    </mxGeometry>
                </mxCell>
                <mxCell id="HshRuz8ZsltgKaOYlfLi-22" value="Product Management Page" style="rounded=0;whiteSpace=wrap;html=1;aspect=fixed;" parent="Pevl4Q1n1Z4yB1_JU74O-1" vertex="1">
                    <mxGeometry x="350" y="90" width="80" height="40" as="geometry"/>
                </mxCell>
                <mxCell id="HshRuz8ZsltgKaOYlfLi-23" value="" style="edgeStyle=none;html=1;entryX=0;entryY=0.5;entryDx=0;entryDy=0;exitX=0.25;exitY=1;exitDx=0;exitDy=0;endArrow=none;endFill=0;" parent="Pevl4Q1n1Z4yB1_JU74O-1" source="HshRuz8ZsltgKaOYlfLi-24" target="HshRuz8ZsltgKaOYlfLi-32" edge="1">
                    <mxGeometry relative="1" as="geometry">
                        <Array as="points">
                            <mxPoint x="170" y="290"/>
                        </Array>
                    </mxGeometry>
                </mxCell>
                <mxCell id="HshRuz8ZsltgKaOYlfLi-40" style="edgeStyle=none;html=1;exitX=0.25;exitY=1;exitDx=0;exitDy=0;entryX=0;entryY=0.5;entryDx=0;entryDy=0;endArrow=none;endFill=0;" parent="Pevl4Q1n1Z4yB1_JU74O-1" source="HshRuz8ZsltgKaOYlfLi-24" target="HshRuz8ZsltgKaOYlfLi-38" edge="1">
                    <mxGeometry relative="1" as="geometry">
                        <Array as="points">
                            <mxPoint x="170" y="360"/>
                        </Array>
                    </mxGeometry>
                </mxCell>
                <mxCell id="HshRuz8ZsltgKaOYlfLi-24" value="General action" style="rounded=0;whiteSpace=wrap;html=1;" parent="Pevl4Q1n1Z4yB1_JU74O-1" vertex="1">
                    <mxGeometry x="150" y="200" width="80" height="40" as="geometry"/>
                </mxCell>
                <mxCell id="HshRuz8ZsltgKaOYlfLi-25" value="" style="edgeStyle=none;html=1;exitX=0.25;exitY=1;exitDx=0;exitDy=0;endArrow=none;endFill=0;" parent="Pevl4Q1n1Z4yB1_JU74O-1" source="HshRuz8ZsltgKaOYlfLi-27" target="HshRuz8ZsltgKaOYlfLi-33" edge="1">
                    <mxGeometry relative="1" as="geometry">
                        <Array as="points">
                            <mxPoint x="370" y="290"/>
                        </Array>
                    </mxGeometry>
                </mxCell>
                <mxCell id="HshRuz8ZsltgKaOYlfLi-26" style="edgeStyle=none;rounded=1;html=1;entryX=0;entryY=0.5;entryDx=0;entryDy=0;exitX=0.25;exitY=1;exitDx=0;exitDy=0;endArrow=none;endFill=0;" parent="Pevl4Q1n1Z4yB1_JU74O-1" source="HshRuz8ZsltgKaOYlfLi-27" target="HshRuz8ZsltgKaOYlfLi-34" edge="1">
                    <mxGeometry relative="1" as="geometry">
                        <Array as="points">
                            <mxPoint x="370" y="360"/>
                        </Array>
                    </mxGeometry>
                </mxCell>
                <mxCell id="HshRuz8ZsltgKaOYlfLi-27" value="Porduct table" style="rounded=0;whiteSpace=wrap;html=1;aspect=fixed;" parent="Pevl4Q1n1Z4yB1_JU74O-1" vertex="1">
                    <mxGeometry x="350" y="200" width="80" height="40" as="geometry"/>
                </mxCell>
                <mxCell id="HshRuz8ZsltgKaOYlfLi-28" value="" style="edgeStyle=none;rounded=1;html=1;exitX=0.25;exitY=1;exitDx=0;exitDy=0;endArrow=none;endFill=0;" parent="Pevl4Q1n1Z4yB1_JU74O-1" source="HshRuz8ZsltgKaOYlfLi-31" target="HshRuz8ZsltgKaOYlfLi-35" edge="1">
                    <mxGeometry relative="1" as="geometry">
                        <Array as="points">
                            <mxPoint x="570" y="290"/>
                        </Array>
                    </mxGeometry>
                </mxCell>
                <mxCell id="HshRuz8ZsltgKaOYlfLi-29" style="edgeStyle=none;rounded=1;html=1;entryX=0;entryY=0.5;entryDx=0;entryDy=0;exitX=0.25;exitY=1;exitDx=0;exitDy=0;endArrow=none;endFill=0;" parent="Pevl4Q1n1Z4yB1_JU74O-1" source="HshRuz8ZsltgKaOYlfLi-31" target="HshRuz8ZsltgKaOYlfLi-36" edge="1">
                    <mxGeometry relative="1" as="geometry">
                        <Array as="points">
                            <mxPoint x="570" y="360"/>
                        </Array>
                    </mxGeometry>
                </mxCell>
                <mxCell id="HshRuz8ZsltgKaOYlfLi-30" style="edgeStyle=none;rounded=1;html=1;exitX=0.25;exitY=1;exitDx=0;exitDy=0;entryX=0;entryY=0.5;entryDx=0;entryDy=0;endArrow=none;endFill=0;" parent="Pevl4Q1n1Z4yB1_JU74O-1" source="HshRuz8ZsltgKaOYlfLi-31" target="HshRuz8ZsltgKaOYlfLi-37" edge="1">
                    <mxGeometry relative="1" as="geometry">
                        <Array as="points">
                            <mxPoint x="570" y="430"/>
                        </Array>
                    </mxGeometry>
                </mxCell>
                <mxCell id="HshRuz8ZsltgKaOYlfLi-31" value="Side bar" style="rounded=0;whiteSpace=wrap;html=1;aspect=fixed;" parent="Pevl4Q1n1Z4yB1_JU74O-1" vertex="1">
                    <mxGeometry x="550" y="200" width="80" height="40" as="geometry"/>
                </mxCell>
                <mxCell id="HshRuz8ZsltgKaOYlfLi-32" value="Create button" style="rounded=0;whiteSpace=wrap;html=1;aspect=fixed;" parent="Pevl4Q1n1Z4yB1_JU74O-1" vertex="1">
                    <mxGeometry x="190" y="270" width="80" height="40" as="geometry"/>
                </mxCell>
                <mxCell id="HshRuz8ZsltgKaOYlfLi-33" value="Porduct Info" style="rounded=0;whiteSpace=wrap;html=1;aspect=fixed;" parent="Pevl4Q1n1Z4yB1_JU74O-1" vertex="1">
                    <mxGeometry x="390" y="270" width="80" height="40" as="geometry"/>
                </mxCell>
                <mxCell id="HshRuz8ZsltgKaOYlfLi-34" value="Actions" style="rounded=0;whiteSpace=wrap;html=1;aspect=fixed;" parent="Pevl4Q1n1Z4yB1_JU74O-1" vertex="1">
                    <mxGeometry x="390" y="340" width="80" height="40" as="geometry"/>
                </mxCell>
                <mxCell id="HshRuz8ZsltgKaOYlfLi-35" value="Nav Button" style="rounded=0;whiteSpace=wrap;html=1;aspect=fixed;" parent="Pevl4Q1n1Z4yB1_JU74O-1" vertex="1">
                    <mxGeometry x="590" y="270" width="80" height="40" as="geometry"/>
                </mxCell>
                <mxCell id="HshRuz8ZsltgKaOYlfLi-36" value="Account nav button" style="rounded=0;whiteSpace=wrap;html=1;aspect=fixed;" parent="Pevl4Q1n1Z4yB1_JU74O-1" vertex="1">
                    <mxGeometry x="590" y="340" width="80" height="40" as="geometry"/>
                </mxCell>
                <mxCell id="HshRuz8ZsltgKaOYlfLi-37" value="Logout" style="rounded=0;whiteSpace=wrap;html=1;aspect=fixed;" parent="Pevl4Q1n1Z4yB1_JU74O-1" vertex="1">
                    <mxGeometry x="590" y="410" width="80" height="40" as="geometry"/>
                </mxCell>
                <mxCell id="HshRuz8ZsltgKaOYlfLi-38" value="Search/Filter product" style="rounded=0;whiteSpace=wrap;html=1;aspect=fixed;" parent="Pevl4Q1n1Z4yB1_JU74O-1" vertex="1">
                    <mxGeometry x="190" y="340" width="80" height="40" as="geometry"/>
                </mxCell>
            </root>
        </mxGraphModel>
    </diagram>
    <diagram id="IWmCG8NsglhAqjsDLceT" name="Create Product page">
        <mxGraphModel dx="1230" dy="558" grid="1" gridSize="10" guides="1" tooltips="1" connect="1" arrows="1" fold="1" page="1" pageScale="1" pageWidth="850" pageHeight="1100" math="0" shadow="0">
            <root>
                <mxCell id="iS7XoK8qoB0pgx0brJda-0"/>
                <mxCell id="iS7XoK8qoB0pgx0brJda-1" parent="iS7XoK8qoB0pgx0brJda-0"/>
                <mxCell id="-yW7LdUsGNsvfTyJL0mT-0" value="" style="edgeStyle=none;html=1;rounded=1;endArrow=none;endFill=0;" parent="iS7XoK8qoB0pgx0brJda-1" source="-yW7LdUsGNsvfTyJL0mT-3" target="-yW7LdUsGNsvfTyJL0mT-6" edge="1">
                    <mxGeometry relative="1" as="geometry">
                        <Array as="points">
                            <mxPoint x="390" y="170"/>
                            <mxPoint x="60" y="170"/>
                        </Array>
                    </mxGeometry>
                </mxCell>
                <mxCell id="-yW7LdUsGNsvfTyJL0mT-1" value="" style="edgeStyle=none;html=1;entryX=0.5;entryY=0;entryDx=0;entryDy=0;endArrow=none;endFill=0;" parent="iS7XoK8qoB0pgx0brJda-1" source="-yW7LdUsGNsvfTyJL0mT-3" target="-yW7LdUsGNsvfTyJL0mT-9" edge="1">
                    <mxGeometry relative="1" as="geometry"/>
                </mxCell>
                <mxCell id="-yW7LdUsGNsvfTyJL0mT-2" value="" style="edgeStyle=none;html=1;endArrow=none;endFill=0;" parent="iS7XoK8qoB0pgx0brJda-1" source="-yW7LdUsGNsvfTyJL0mT-3" target="-yW7LdUsGNsvfTyJL0mT-13" edge="1">
                    <mxGeometry relative="1" as="geometry">
                        <Array as="points">
                            <mxPoint x="390" y="170"/>
                            <mxPoint x="590" y="170"/>
                        </Array>
                    </mxGeometry>
                </mxCell>
                <mxCell id="U8vSLHLkLRbGNvMmOyNg-1" style="edgeStyle=orthogonalEdgeStyle;html=1;endArrow=none;endFill=0;" parent="iS7XoK8qoB0pgx0brJda-1" source="-yW7LdUsGNsvfTyJL0mT-3" target="U8vSLHLkLRbGNvMmOyNg-0" edge="1">
                    <mxGeometry relative="1" as="geometry">
                        <Array as="points">
                            <mxPoint x="390" y="170"/>
                            <mxPoint x="190" y="170"/>
                        </Array>
                    </mxGeometry>
                </mxCell>
                <mxCell id="BObIVF4iSZfd8hnlliZb-1" style="edgeStyle=orthogonalEdgeStyle;html=1;endArrow=none;endFill=0;" parent="iS7XoK8qoB0pgx0brJda-1" source="-yW7LdUsGNsvfTyJL0mT-3" target="BObIVF4iSZfd8hnlliZb-0" edge="1">
                    <mxGeometry relative="1" as="geometry">
                        <Array as="points">
                            <mxPoint x="390" y="170"/>
                            <mxPoint x="730" y="170"/>
                        </Array>
                    </mxGeometry>
                </mxCell>
                <mxCell id="BObIVF4iSZfd8hnlliZb-3" style="edgeStyle=orthogonalEdgeStyle;html=1;endArrow=none;endFill=0;" parent="iS7XoK8qoB0pgx0brJda-1" source="-yW7LdUsGNsvfTyJL0mT-3" target="BObIVF4iSZfd8hnlliZb-2" edge="1">
                    <mxGeometry relative="1" as="geometry">
                        <Array as="points">
                            <mxPoint x="390" y="170"/>
                            <mxPoint x="850" y="170"/>
                        </Array>
                    </mxGeometry>
                </mxCell>
                <mxCell id="-yW7LdUsGNsvfTyJL0mT-3" value="Create Product" style="rounded=0;whiteSpace=wrap;html=1;aspect=fixed;" parent="iS7XoK8qoB0pgx0brJda-1" vertex="1">
                    <mxGeometry x="350" y="90" width="80" height="40" as="geometry"/>
                </mxCell>
                <mxCell id="-yW7LdUsGNsvfTyJL0mT-6" value="Basic info fields" style="rounded=0;whiteSpace=wrap;html=1;aspect=fixed;" parent="iS7XoK8qoB0pgx0brJda-1" vertex="1">
                    <mxGeometry x="20" y="200" width="80" height="40" as="geometry"/>
                </mxCell>
                <mxCell id="-yW7LdUsGNsvfTyJL0mT-7" value="" style="edgeStyle=none;html=1;exitX=0.25;exitY=1;exitDx=0;exitDy=0;endArrow=none;endFill=0;" parent="iS7XoK8qoB0pgx0brJda-1" source="-yW7LdUsGNsvfTyJL0mT-9" target="-yW7LdUsGNsvfTyJL0mT-15" edge="1">
                    <mxGeometry relative="1" as="geometry">
                        <Array as="points">
                            <mxPoint x="370" y="290"/>
                        </Array>
                    </mxGeometry>
                </mxCell>
                <mxCell id="-yW7LdUsGNsvfTyJL0mT-8" style="edgeStyle=none;rounded=1;html=1;entryX=0;entryY=0.5;entryDx=0;entryDy=0;exitX=0.25;exitY=1;exitDx=0;exitDy=0;endArrow=none;endFill=0;" parent="iS7XoK8qoB0pgx0brJda-1" source="-yW7LdUsGNsvfTyJL0mT-9" target="-yW7LdUsGNsvfTyJL0mT-16" edge="1">
                    <mxGeometry relative="1" as="geometry">
                        <Array as="points">
                            <mxPoint x="370" y="360"/>
                        </Array>
                    </mxGeometry>
                </mxCell>
                <mxCell id="-yW7LdUsGNsvfTyJL0mT-9" value="Variant/ Variation" style="rounded=0;whiteSpace=wrap;html=1;aspect=fixed;" parent="iS7XoK8qoB0pgx0brJda-1" vertex="1">
                    <mxGeometry x="350" y="200" width="80" height="40" as="geometry"/>
                </mxCell>
                <mxCell id="-yW7LdUsGNsvfTyJL0mT-10" value="" style="edgeStyle=none;rounded=1;html=1;exitX=0.25;exitY=1;exitDx=0;exitDy=0;endArrow=none;endFill=0;" parent="iS7XoK8qoB0pgx0brJda-1" source="-yW7LdUsGNsvfTyJL0mT-13" target="-yW7LdUsGNsvfTyJL0mT-17" edge="1">
                    <mxGeometry relative="1" as="geometry">
                        <Array as="points">
                            <mxPoint x="570" y="290"/>
                        </Array>
                    </mxGeometry>
                </mxCell>
                <mxCell id="-yW7LdUsGNsvfTyJL0mT-11" style="edgeStyle=none;rounded=1;html=1;entryX=0;entryY=0.5;entryDx=0;entryDy=0;exitX=0.25;exitY=1;exitDx=0;exitDy=0;endArrow=none;endFill=0;" parent="iS7XoK8qoB0pgx0brJda-1" source="-yW7LdUsGNsvfTyJL0mT-13" target="-yW7LdUsGNsvfTyJL0mT-18" edge="1">
                    <mxGeometry relative="1" as="geometry">
                        <Array as="points">
                            <mxPoint x="570" y="360"/>
                        </Array>
                    </mxGeometry>
                </mxCell>
                <mxCell id="-yW7LdUsGNsvfTyJL0mT-12" style="edgeStyle=none;rounded=1;html=1;exitX=0.25;exitY=1;exitDx=0;exitDy=0;entryX=0;entryY=0.5;entryDx=0;entryDy=0;endArrow=none;endFill=0;" parent="iS7XoK8qoB0pgx0brJda-1" source="-yW7LdUsGNsvfTyJL0mT-13" target="-yW7LdUsGNsvfTyJL0mT-19" edge="1">
                    <mxGeometry relative="1" as="geometry">
                        <Array as="points">
                            <mxPoint x="570" y="430"/>
                        </Array>
                    </mxGeometry>
                </mxCell>
                <mxCell id="-yW7LdUsGNsvfTyJL0mT-13" value="Side bar" style="rounded=0;whiteSpace=wrap;html=1;aspect=fixed;" parent="iS7XoK8qoB0pgx0brJda-1" vertex="1">
                    <mxGeometry x="550" y="200" width="80" height="40" as="geometry"/>
                </mxCell>
                <mxCell id="-yW7LdUsGNsvfTyJL0mT-15" value="Variant Fields" style="rounded=0;whiteSpace=wrap;html=1;aspect=fixed;" parent="iS7XoK8qoB0pgx0brJda-1" vertex="1">
                    <mxGeometry x="385" y="270" width="80" height="40" as="geometry"/>
                </mxCell>
                <mxCell id="-yW7LdUsGNsvfTyJL0mT-16" value="Variation Table" style="rounded=0;whiteSpace=wrap;html=1;aspect=fixed;" parent="iS7XoK8qoB0pgx0brJda-1" vertex="1">
                    <mxGeometry x="385" y="340" width="80" height="40" as="geometry"/>
                </mxCell>
                <mxCell id="-yW7LdUsGNsvfTyJL0mT-17" value="Nav Button" style="rounded=0;whiteSpace=wrap;html=1;aspect=fixed;" parent="iS7XoK8qoB0pgx0brJda-1" vertex="1">
                    <mxGeometry x="590" y="270" width="80" height="40" as="geometry"/>
                </mxCell>
                <mxCell id="-yW7LdUsGNsvfTyJL0mT-18" value="Account nav button" style="rounded=0;whiteSpace=wrap;html=1;aspect=fixed;" parent="iS7XoK8qoB0pgx0brJda-1" vertex="1">
                    <mxGeometry x="590" y="340" width="80" height="40" as="geometry"/>
                </mxCell>
                <mxCell id="-yW7LdUsGNsvfTyJL0mT-19" value="Logout" style="rounded=0;whiteSpace=wrap;html=1;aspect=fixed;" parent="iS7XoK8qoB0pgx0brJda-1" vertex="1">
                    <mxGeometry x="590" y="410" width="80" height="40" as="geometry"/>
                </mxCell>
                <mxCell id="U8vSLHLkLRbGNvMmOyNg-3" style="edgeStyle=orthogonalEdgeStyle;html=1;endArrow=none;endFill=0;" parent="iS7XoK8qoB0pgx0brJda-1" source="U8vSLHLkLRbGNvMmOyNg-0" target="U8vSLHLkLRbGNvMmOyNg-2" edge="1">
                    <mxGeometry relative="1" as="geometry">
                        <Array as="points">
                            <mxPoint x="170" y="300"/>
                            <mxPoint x="170" y="300"/>
                        </Array>
                    </mxGeometry>
                </mxCell>
                <mxCell id="U8vSLHLkLRbGNvMmOyNg-0" value="Image Upload" style="rounded=0;whiteSpace=wrap;html=1;aspect=fixed;" parent="iS7XoK8qoB0pgx0brJda-1" vertex="1">
                    <mxGeometry x="150" y="200" width="80" height="40" as="geometry"/>
                </mxCell>
                <mxCell id="U8vSLHLkLRbGNvMmOyNg-2" value="Image" style="rounded=0;whiteSpace=wrap;html=1;aspect=fixed;" parent="iS7XoK8qoB0pgx0brJda-1" vertex="1">
                    <mxGeometry x="190" y="280" width="80" height="40" as="geometry"/>
                </mxCell>
                <mxCell id="BObIVF4iSZfd8hnlliZb-0" value="Save button" style="rounded=0;whiteSpace=wrap;html=1;aspect=fixed;" parent="iS7XoK8qoB0pgx0brJda-1" vertex="1">
                    <mxGeometry x="690" y="200" width="80" height="40" as="geometry"/>
                </mxCell>
                <mxCell id="BObIVF4iSZfd8hnlliZb-2" value="Cancel button" style="rounded=0;whiteSpace=wrap;html=1;aspect=fixed;" parent="iS7XoK8qoB0pgx0brJda-1" vertex="1">
                    <mxGeometry x="810" y="200" width="80" height="40" as="geometry"/>
                </mxCell>
            </root>
        </mxGraphModel>
    </diagram>
    <diagram id="ovzocwfUlfnBBf2BSaCK" name="Category Management">
        <mxGraphModel dx="1230" dy="558" grid="1" gridSize="10" guides="1" tooltips="1" connect="1" arrows="1" fold="1" page="1" pageScale="1" pageWidth="850" pageHeight="1100" math="0" shadow="0">
            <root>
                <mxCell id="LD8tQ-JNfy8mnIEz7m-C-0"/>
                <mxCell id="LD8tQ-JNfy8mnIEz7m-C-1" parent="LD8tQ-JNfy8mnIEz7m-C-0"/>
                <mxCell id="j6GLmgttZ5z9ulKhZxpV-1" value="" style="edgeStyle=none;html=1;entryX=0.5;entryY=0;entryDx=0;entryDy=0;endArrow=none;endFill=0;" parent="LD8tQ-JNfy8mnIEz7m-C-1" source="j6GLmgttZ5z9ulKhZxpV-6" target="j6GLmgttZ5z9ulKhZxpV-10" edge="1">
                    <mxGeometry relative="1" as="geometry"/>
                </mxCell>
                <mxCell id="j6GLmgttZ5z9ulKhZxpV-2" value="" style="edgeStyle=none;html=1;endArrow=none;endFill=0;" parent="LD8tQ-JNfy8mnIEz7m-C-1" source="j6GLmgttZ5z9ulKhZxpV-6" target="j6GLmgttZ5z9ulKhZxpV-14" edge="1">
                    <mxGeometry relative="1" as="geometry">
                        <Array as="points">
                            <mxPoint x="390" y="170"/>
                            <mxPoint x="590" y="170"/>
                        </Array>
                    </mxGeometry>
                </mxCell>
                <mxCell id="j6GLmgttZ5z9ulKhZxpV-3" style="edgeStyle=orthogonalEdgeStyle;html=1;endArrow=none;endFill=0;" parent="LD8tQ-JNfy8mnIEz7m-C-1" source="j6GLmgttZ5z9ulKhZxpV-6" target="ICTMQdymLL-ltkeanjJV-22" edge="1">
                    <mxGeometry relative="1" as="geometry">
                        <Array as="points">
                            <mxPoint x="390" y="170"/>
                            <mxPoint x="190" y="170"/>
                        </Array>
                        <mxPoint x="190" y="200" as="targetPoint"/>
                    </mxGeometry>
                </mxCell>
                <mxCell id="j6GLmgttZ5z9ulKhZxpV-6" value="Manage Category" style="rounded=0;whiteSpace=wrap;html=1;aspect=fixed;" parent="LD8tQ-JNfy8mnIEz7m-C-1" vertex="1">
                    <mxGeometry x="350" y="90" width="80" height="40" as="geometry"/>
                </mxCell>
                <mxCell id="j6GLmgttZ5z9ulKhZxpV-8" value="" style="edgeStyle=none;html=1;exitX=0.25;exitY=1;exitDx=0;exitDy=0;endArrow=none;endFill=0;" parent="LD8tQ-JNfy8mnIEz7m-C-1" source="j6GLmgttZ5z9ulKhZxpV-10" target="j6GLmgttZ5z9ulKhZxpV-15" edge="1">
                    <mxGeometry relative="1" as="geometry">
                        <Array as="points">
                            <mxPoint x="370" y="290"/>
                        </Array>
                    </mxGeometry>
                </mxCell>
                <mxCell id="j6GLmgttZ5z9ulKhZxpV-9" style="edgeStyle=none;rounded=1;html=1;entryX=0;entryY=0.5;entryDx=0;entryDy=0;exitX=0.25;exitY=1;exitDx=0;exitDy=0;endArrow=none;endFill=0;" parent="LD8tQ-JNfy8mnIEz7m-C-1" source="j6GLmgttZ5z9ulKhZxpV-10" target="j6GLmgttZ5z9ulKhZxpV-16" edge="1">
                    <mxGeometry relative="1" as="geometry">
                        <Array as="points">
                            <mxPoint x="370" y="360"/>
                        </Array>
                    </mxGeometry>
                </mxCell>
                <mxCell id="ICTMQdymLL-ltkeanjJV-9" style="edgeStyle=orthogonalEdgeStyle;html=1;endArrow=none;endFill=0;" parent="LD8tQ-JNfy8mnIEz7m-C-1" source="j6GLmgttZ5z9ulKhZxpV-10" target="ICTMQdymLL-ltkeanjJV-8" edge="1">
                    <mxGeometry relative="1" as="geometry">
                        <Array as="points">
                            <mxPoint x="370" y="430"/>
                            <mxPoint x="370" y="430"/>
                        </Array>
                    </mxGeometry>
                </mxCell>
                <mxCell id="ICTMQdymLL-ltkeanjJV-19" style="edgeStyle=orthogonalEdgeStyle;html=1;endArrow=none;endFill=0;" parent="LD8tQ-JNfy8mnIEz7m-C-1" source="j6GLmgttZ5z9ulKhZxpV-10" target="ICTMQdymLL-ltkeanjJV-16" edge="1">
                    <mxGeometry relative="1" as="geometry">
                        <Array as="points">
                            <mxPoint x="370" y="640"/>
                            <mxPoint x="370" y="640"/>
                        </Array>
                    </mxGeometry>
                </mxCell>
                <mxCell id="j6GLmgttZ5z9ulKhZxpV-10" value="Category" style="rounded=0;whiteSpace=wrap;html=1;aspect=fixed;" parent="LD8tQ-JNfy8mnIEz7m-C-1" vertex="1">
                    <mxGeometry x="350" y="200" width="80" height="40" as="geometry"/>
                </mxCell>
                <mxCell id="j6GLmgttZ5z9ulKhZxpV-11" value="" style="edgeStyle=none;rounded=1;html=1;exitX=0.25;exitY=1;exitDx=0;exitDy=0;endArrow=none;endFill=0;" parent="LD8tQ-JNfy8mnIEz7m-C-1" source="j6GLmgttZ5z9ulKhZxpV-14" target="j6GLmgttZ5z9ulKhZxpV-17" edge="1">
                    <mxGeometry relative="1" as="geometry">
                        <Array as="points">
                            <mxPoint x="570" y="290"/>
                        </Array>
                    </mxGeometry>
                </mxCell>
                <mxCell id="j6GLmgttZ5z9ulKhZxpV-12" style="edgeStyle=none;rounded=1;html=1;entryX=0;entryY=0.5;entryDx=0;entryDy=0;exitX=0.25;exitY=1;exitDx=0;exitDy=0;endArrow=none;endFill=0;" parent="LD8tQ-JNfy8mnIEz7m-C-1" source="j6GLmgttZ5z9ulKhZxpV-14" target="j6GLmgttZ5z9ulKhZxpV-18" edge="1">
                    <mxGeometry relative="1" as="geometry">
                        <Array as="points">
                            <mxPoint x="570" y="360"/>
                        </Array>
                    </mxGeometry>
                </mxCell>
                <mxCell id="j6GLmgttZ5z9ulKhZxpV-13" style="edgeStyle=none;rounded=1;html=1;exitX=0.25;exitY=1;exitDx=0;exitDy=0;entryX=0;entryY=0.5;entryDx=0;entryDy=0;endArrow=none;endFill=0;" parent="LD8tQ-JNfy8mnIEz7m-C-1" source="j6GLmgttZ5z9ulKhZxpV-14" target="j6GLmgttZ5z9ulKhZxpV-19" edge="1">
                    <mxGeometry relative="1" as="geometry">
                        <Array as="points">
                            <mxPoint x="570" y="430"/>
                        </Array>
                    </mxGeometry>
                </mxCell>
                <mxCell id="j6GLmgttZ5z9ulKhZxpV-14" value="Side bar" style="rounded=0;whiteSpace=wrap;html=1;aspect=fixed;" parent="LD8tQ-JNfy8mnIEz7m-C-1" vertex="1">
                    <mxGeometry x="550" y="200" width="80" height="40" as="geometry"/>
                </mxCell>
                <mxCell id="j6GLmgttZ5z9ulKhZxpV-15" value="Category name" style="rounded=0;whiteSpace=wrap;html=1;aspect=fixed;" parent="LD8tQ-JNfy8mnIEz7m-C-1" vertex="1">
                    <mxGeometry x="385" y="270" width="80" height="40" as="geometry"/>
                </mxCell>
                <mxCell id="j6GLmgttZ5z9ulKhZxpV-16" value="Show sub Category" style="rounded=0;whiteSpace=wrap;html=1;aspect=fixed;" parent="LD8tQ-JNfy8mnIEz7m-C-1" vertex="1">
                    <mxGeometry x="385" y="340" width="80" height="40" as="geometry"/>
                </mxCell>
                <mxCell id="j6GLmgttZ5z9ulKhZxpV-17" value="Nav Button" style="rounded=0;whiteSpace=wrap;html=1;aspect=fixed;" parent="LD8tQ-JNfy8mnIEz7m-C-1" vertex="1">
                    <mxGeometry x="590" y="270" width="80" height="40" as="geometry"/>
                </mxCell>
                <mxCell id="j6GLmgttZ5z9ulKhZxpV-18" value="Account nav button" style="rounded=0;whiteSpace=wrap;html=1;aspect=fixed;" parent="LD8tQ-JNfy8mnIEz7m-C-1" vertex="1">
                    <mxGeometry x="590" y="340" width="80" height="40" as="geometry"/>
                </mxCell>
                <mxCell id="j6GLmgttZ5z9ulKhZxpV-19" value="Logout" style="rounded=0;whiteSpace=wrap;html=1;aspect=fixed;" parent="LD8tQ-JNfy8mnIEz7m-C-1" vertex="1">
                    <mxGeometry x="590" y="410" width="80" height="40" as="geometry"/>
                </mxCell>
                <mxCell id="ICTMQdymLL-ltkeanjJV-12" style="edgeStyle=orthogonalEdgeStyle;html=1;endArrow=none;endFill=0;" parent="LD8tQ-JNfy8mnIEz7m-C-1" source="ICTMQdymLL-ltkeanjJV-8" target="ICTMQdymLL-ltkeanjJV-10" edge="1">
                    <mxGeometry relative="1" as="geometry">
                        <Array as="points">
                            <mxPoint x="400" y="500"/>
                            <mxPoint x="400" y="500"/>
                        </Array>
                    </mxGeometry>
                </mxCell>
                <mxCell id="ICTMQdymLL-ltkeanjJV-13" style="edgeStyle=orthogonalEdgeStyle;html=1;endArrow=none;endFill=0;" parent="LD8tQ-JNfy8mnIEz7m-C-1" source="ICTMQdymLL-ltkeanjJV-8" target="ICTMQdymLL-ltkeanjJV-11" edge="1">
                    <mxGeometry relative="1" as="geometry">
                        <Array as="points">
                            <mxPoint x="400" y="570"/>
                        </Array>
                    </mxGeometry>
                </mxCell>
                <mxCell id="ICTMQdymLL-ltkeanjJV-8" value="3 dots button" style="rounded=0;whiteSpace=wrap;html=1;aspect=fixed;" parent="LD8tQ-JNfy8mnIEz7m-C-1" vertex="1">
                    <mxGeometry x="385" y="410" width="80" height="40" as="geometry"/>
                </mxCell>
                <mxCell id="ICTMQdymLL-ltkeanjJV-10" value="Edit Category" style="rounded=0;whiteSpace=wrap;html=1;aspect=fixed;" parent="LD8tQ-JNfy8mnIEz7m-C-1" vertex="1">
                    <mxGeometry x="420" y="480" width="80" height="40" as="geometry"/>
                </mxCell>
                <mxCell id="ICTMQdymLL-ltkeanjJV-11" value="Delete Category" style="rounded=0;whiteSpace=wrap;html=1;aspect=fixed;" parent="LD8tQ-JNfy8mnIEz7m-C-1" vertex="1">
                    <mxGeometry x="420" y="550" width="80" height="40" as="geometry"/>
                </mxCell>
                <mxCell id="ICTMQdymLL-ltkeanjJV-14" style="edgeStyle=orthogonalEdgeStyle;html=1;endArrow=none;endFill=0;" parent="LD8tQ-JNfy8mnIEz7m-C-1" source="ICTMQdymLL-ltkeanjJV-16" target="ICTMQdymLL-ltkeanjJV-17" edge="1">
                    <mxGeometry relative="1" as="geometry">
                        <Array as="points">
                            <mxPoint x="405" y="710"/>
                        </Array>
                        <mxPoint x="425" y="710" as="targetPoint"/>
                    </mxGeometry>
                </mxCell>
                <mxCell id="ICTMQdymLL-ltkeanjJV-15" style="edgeStyle=orthogonalEdgeStyle;html=1;endArrow=none;endFill=0;" parent="LD8tQ-JNfy8mnIEz7m-C-1" source="ICTMQdymLL-ltkeanjJV-16" target="ICTMQdymLL-ltkeanjJV-18" edge="1">
                    <mxGeometry relative="1" as="geometry">
                        <Array as="points">
                            <mxPoint x="405" y="780"/>
                            <mxPoint x="405" y="780"/>
                        </Array>
                    </mxGeometry>
                </mxCell>
                <mxCell id="ICTMQdymLL-ltkeanjJV-16" value="Create Sub Category area" style="rounded=0;whiteSpace=wrap;html=1;aspect=fixed;" parent="LD8tQ-JNfy8mnIEz7m-C-1" vertex="1">
                    <mxGeometry x="385" y="620" width="80" height="40" as="geometry"/>
                </mxCell>
                <mxCell id="ICTMQdymLL-ltkeanjJV-17" value="Input field" style="rounded=0;whiteSpace=wrap;html=1;aspect=fixed;" parent="LD8tQ-JNfy8mnIEz7m-C-1" vertex="1">
                    <mxGeometry x="425" y="690" width="80" height="40" as="geometry"/>
                </mxCell>
                <mxCell id="ICTMQdymLL-ltkeanjJV-18" value="Save button" style="rounded=0;whiteSpace=wrap;html=1;aspect=fixed;" parent="LD8tQ-JNfy8mnIEz7m-C-1" vertex="1">
                    <mxGeometry x="425" y="760" width="80" height="40" as="geometry"/>
                </mxCell>
                <mxCell id="ICTMQdymLL-ltkeanjJV-20" style="edgeStyle=orthogonalEdgeStyle;html=1;endArrow=none;endFill=0;" parent="LD8tQ-JNfy8mnIEz7m-C-1" source="ICTMQdymLL-ltkeanjJV-22" target="ICTMQdymLL-ltkeanjJV-23" edge="1">
                    <mxGeometry relative="1" as="geometry">
                        <Array as="points">
                            <mxPoint x="170" y="290"/>
                        </Array>
                    </mxGeometry>
                </mxCell>
                <mxCell id="ICTMQdymLL-ltkeanjJV-21" style="edgeStyle=orthogonalEdgeStyle;html=1;endArrow=none;endFill=0;" parent="LD8tQ-JNfy8mnIEz7m-C-1" source="ICTMQdymLL-ltkeanjJV-22" target="ICTMQdymLL-ltkeanjJV-24" edge="1">
                    <mxGeometry relative="1" as="geometry">
                        <Array as="points">
                            <mxPoint x="170" y="360"/>
                        </Array>
                    </mxGeometry>
                </mxCell>
                <mxCell id="ICTMQdymLL-ltkeanjJV-22" value="Create first tree Category area" style="rounded=0;whiteSpace=wrap;html=1;aspect=fixed;" parent="LD8tQ-JNfy8mnIEz7m-C-1" vertex="1">
                    <mxGeometry x="150" y="200" width="80" height="40" as="geometry"/>
                </mxCell>
                <mxCell id="ICTMQdymLL-ltkeanjJV-23" value="Input field" style="rounded=0;whiteSpace=wrap;html=1;aspect=fixed;" parent="LD8tQ-JNfy8mnIEz7m-C-1" vertex="1">
                    <mxGeometry x="190" y="270" width="80" height="40" as="geometry"/>
                </mxCell>
                <mxCell id="ICTMQdymLL-ltkeanjJV-24" value="Save button" style="rounded=0;whiteSpace=wrap;html=1;aspect=fixed;" parent="LD8tQ-JNfy8mnIEz7m-C-1" vertex="1">
                    <mxGeometry x="190" y="340" width="80" height="40" as="geometry"/>
                </mxCell>
            </root>
        </mxGraphModel>
    </diagram>
    <diagram id="rax1LzJk5zb-WxSYbJqC" name="Update Product page">
        <mxGraphModel dx="1230" dy="558" grid="1" gridSize="10" guides="1" tooltips="1" connect="1" arrows="1" fold="1" page="1" pageScale="1" pageWidth="850" pageHeight="1100" math="0" shadow="0">
            <root>
                <mxCell id="CN391gvvRIoFLkOfb9pB-0"/>
                <mxCell id="CN391gvvRIoFLkOfb9pB-1" parent="CN391gvvRIoFLkOfb9pB-0"/>
                <mxCell id="h-2Bb6POxhM6m2OBUG3G-21" value="" style="edgeStyle=none;html=1;rounded=1;endArrow=none;endFill=0;" parent="CN391gvvRIoFLkOfb9pB-1" source="h-2Bb6POxhM6m2OBUG3G-25" target="h-2Bb6POxhM6m2OBUG3G-26" edge="1">
                    <mxGeometry relative="1" as="geometry">
                        <Array as="points">
                            <mxPoint x="410" y="160"/>
                            <mxPoint x="80" y="160"/>
                        </Array>
                    </mxGeometry>
                </mxCell>
                <mxCell id="h-2Bb6POxhM6m2OBUG3G-22" value="" style="edgeStyle=none;html=1;entryX=0.5;entryY=0;entryDx=0;entryDy=0;endArrow=none;endFill=0;" parent="CN391gvvRIoFLkOfb9pB-1" source="h-2Bb6POxhM6m2OBUG3G-25" target="h-2Bb6POxhM6m2OBUG3G-29" edge="1">
                    <mxGeometry relative="1" as="geometry"/>
                </mxCell>
                <mxCell id="h-2Bb6POxhM6m2OBUG3G-23" value="" style="edgeStyle=none;html=1;endArrow=none;endFill=0;" parent="CN391gvvRIoFLkOfb9pB-1" source="h-2Bb6POxhM6m2OBUG3G-25" target="h-2Bb6POxhM6m2OBUG3G-33" edge="1">
                    <mxGeometry relative="1" as="geometry">
                        <Array as="points">
                            <mxPoint x="410" y="160"/>
                            <mxPoint x="610" y="160"/>
                        </Array>
                    </mxGeometry>
                </mxCell>
                <mxCell id="h-2Bb6POxhM6m2OBUG3G-24" style="edgeStyle=orthogonalEdgeStyle;html=1;endArrow=none;endFill=0;" parent="CN391gvvRIoFLkOfb9pB-1" source="h-2Bb6POxhM6m2OBUG3G-25" target="h-2Bb6POxhM6m2OBUG3G-40" edge="1">
                    <mxGeometry relative="1" as="geometry">
                        <Array as="points">
                            <mxPoint x="410" y="160"/>
                            <mxPoint x="210" y="160"/>
                        </Array>
                    </mxGeometry>
                </mxCell>
                <mxCell id="C0V4QrhuHPCSRDy6MAaP-2" style="edgeStyle=orthogonalEdgeStyle;html=1;endArrow=none;endFill=0;" parent="CN391gvvRIoFLkOfb9pB-1" source="h-2Bb6POxhM6m2OBUG3G-25" target="C0V4QrhuHPCSRDy6MAaP-0" edge="1">
                    <mxGeometry relative="1" as="geometry">
                        <Array as="points">
                            <mxPoint x="410" y="160"/>
                            <mxPoint x="750" y="160"/>
                        </Array>
                    </mxGeometry>
                </mxCell>
                <mxCell id="C0V4QrhuHPCSRDy6MAaP-3" style="edgeStyle=orthogonalEdgeStyle;html=1;endArrow=none;endFill=0;" parent="CN391gvvRIoFLkOfb9pB-1" source="h-2Bb6POxhM6m2OBUG3G-25" target="C0V4QrhuHPCSRDy6MAaP-1" edge="1">
                    <mxGeometry relative="1" as="geometry">
                        <Array as="points">
                            <mxPoint x="410" y="160"/>
                            <mxPoint x="870" y="160"/>
                        </Array>
                    </mxGeometry>
                </mxCell>
                <mxCell id="h-2Bb6POxhM6m2OBUG3G-25" value="Update Product" style="rounded=0;whiteSpace=wrap;html=1;aspect=fixed;" parent="CN391gvvRIoFLkOfb9pB-1" vertex="1">
                    <mxGeometry x="370" y="80" width="80" height="40" as="geometry"/>
                </mxCell>
                <mxCell id="h-2Bb6POxhM6m2OBUG3G-26" value="Basic info fields" style="rounded=0;whiteSpace=wrap;html=1;aspect=fixed;" parent="CN391gvvRIoFLkOfb9pB-1" vertex="1">
                    <mxGeometry x="40" y="190" width="80" height="40" as="geometry"/>
                </mxCell>
                <mxCell id="h-2Bb6POxhM6m2OBUG3G-27" value="" style="edgeStyle=none;html=1;exitX=0.25;exitY=1;exitDx=0;exitDy=0;endArrow=none;endFill=0;" parent="CN391gvvRIoFLkOfb9pB-1" source="h-2Bb6POxhM6m2OBUG3G-29" target="h-2Bb6POxhM6m2OBUG3G-34" edge="1">
                    <mxGeometry relative="1" as="geometry">
                        <Array as="points">
                            <mxPoint x="390" y="280"/>
                        </Array>
                    </mxGeometry>
                </mxCell>
                <mxCell id="h-2Bb6POxhM6m2OBUG3G-28" style="edgeStyle=none;rounded=1;html=1;entryX=0;entryY=0.5;entryDx=0;entryDy=0;exitX=0.25;exitY=1;exitDx=0;exitDy=0;endArrow=none;endFill=0;" parent="CN391gvvRIoFLkOfb9pB-1" source="h-2Bb6POxhM6m2OBUG3G-29" target="h-2Bb6POxhM6m2OBUG3G-35" edge="1">
                    <mxGeometry relative="1" as="geometry">
                        <Array as="points">
                            <mxPoint x="390" y="350"/>
                        </Array>
                    </mxGeometry>
                </mxCell>
                <mxCell id="bllQlw7tOWOYWpfIj3jP-6" style="edgeStyle=orthogonalEdgeStyle;html=1;endArrow=none;endFill=0;" parent="CN391gvvRIoFLkOfb9pB-1" source="h-2Bb6POxhM6m2OBUG3G-29" target="bllQlw7tOWOYWpfIj3jP-5" edge="1">
                    <mxGeometry relative="1" as="geometry">
                        <Array as="points">
                            <mxPoint x="390" y="420"/>
                        </Array>
                    </mxGeometry>
                </mxCell>
                <mxCell id="h-2Bb6POxhM6m2OBUG3G-29" value="Update Variation" style="rounded=0;whiteSpace=wrap;html=1;aspect=fixed;" parent="CN391gvvRIoFLkOfb9pB-1" vertex="1">
                    <mxGeometry x="370" y="190" width="80" height="40" as="geometry"/>
                </mxCell>
                <mxCell id="h-2Bb6POxhM6m2OBUG3G-30" value="" style="edgeStyle=none;rounded=1;html=1;exitX=0.25;exitY=1;exitDx=0;exitDy=0;endArrow=none;endFill=0;" parent="CN391gvvRIoFLkOfb9pB-1" source="h-2Bb6POxhM6m2OBUG3G-33" target="h-2Bb6POxhM6m2OBUG3G-36" edge="1">
                    <mxGeometry relative="1" as="geometry">
                        <Array as="points">
                            <mxPoint x="590" y="280"/>
                        </Array>
                    </mxGeometry>
                </mxCell>
                <mxCell id="h-2Bb6POxhM6m2OBUG3G-31" style="edgeStyle=none;rounded=1;html=1;entryX=0;entryY=0.5;entryDx=0;entryDy=0;exitX=0.25;exitY=1;exitDx=0;exitDy=0;endArrow=none;endFill=0;" parent="CN391gvvRIoFLkOfb9pB-1" source="h-2Bb6POxhM6m2OBUG3G-33" target="h-2Bb6POxhM6m2OBUG3G-37" edge="1">
                    <mxGeometry relative="1" as="geometry">
                        <Array as="points">
                            <mxPoint x="590" y="350"/>
                        </Array>
                    </mxGeometry>
                </mxCell>
                <mxCell id="h-2Bb6POxhM6m2OBUG3G-32" style="edgeStyle=none;rounded=1;html=1;exitX=0.25;exitY=1;exitDx=0;exitDy=0;entryX=0;entryY=0.5;entryDx=0;entryDy=0;endArrow=none;endFill=0;" parent="CN391gvvRIoFLkOfb9pB-1" source="h-2Bb6POxhM6m2OBUG3G-33" target="h-2Bb6POxhM6m2OBUG3G-38" edge="1">
                    <mxGeometry relative="1" as="geometry">
                        <Array as="points">
                            <mxPoint x="590" y="420"/>
                        </Array>
                    </mxGeometry>
                </mxCell>
                <mxCell id="h-2Bb6POxhM6m2OBUG3G-33" value="Side bar" style="rounded=0;whiteSpace=wrap;html=1;aspect=fixed;" parent="CN391gvvRIoFLkOfb9pB-1" vertex="1">
                    <mxGeometry x="570" y="190" width="80" height="40" as="geometry"/>
                </mxCell>
                <mxCell id="h-2Bb6POxhM6m2OBUG3G-34" value="Variation Table" style="rounded=0;whiteSpace=wrap;html=1;aspect=fixed;" parent="CN391gvvRIoFLkOfb9pB-1" vertex="1">
                    <mxGeometry x="405" y="260" width="80" height="40" as="geometry"/>
                </mxCell>
                <mxCell id="h-2Bb6POxhM6m2OBUG3G-35" value="Save button" style="rounded=0;whiteSpace=wrap;html=1;aspect=fixed;" parent="CN391gvvRIoFLkOfb9pB-1" vertex="1">
                    <mxGeometry x="405" y="330" width="80" height="40" as="geometry"/>
                </mxCell>
                <mxCell id="h-2Bb6POxhM6m2OBUG3G-36" value="Nav Button" style="rounded=0;whiteSpace=wrap;html=1;aspect=fixed;" parent="CN391gvvRIoFLkOfb9pB-1" vertex="1">
                    <mxGeometry x="610" y="260" width="80" height="40" as="geometry"/>
                </mxCell>
                <mxCell id="h-2Bb6POxhM6m2OBUG3G-37" value="Account nav button" style="rounded=0;whiteSpace=wrap;html=1;aspect=fixed;" parent="CN391gvvRIoFLkOfb9pB-1" vertex="1">
                    <mxGeometry x="610" y="330" width="80" height="40" as="geometry"/>
                </mxCell>
                <mxCell id="h-2Bb6POxhM6m2OBUG3G-38" value="Logout" style="rounded=0;whiteSpace=wrap;html=1;aspect=fixed;" parent="CN391gvvRIoFLkOfb9pB-1" vertex="1">
                    <mxGeometry x="610" y="400" width="80" height="40" as="geometry"/>
                </mxCell>
                <mxCell id="h-2Bb6POxhM6m2OBUG3G-39" style="edgeStyle=orthogonalEdgeStyle;html=1;endArrow=none;endFill=0;" parent="CN391gvvRIoFLkOfb9pB-1" source="h-2Bb6POxhM6m2OBUG3G-40" target="h-2Bb6POxhM6m2OBUG3G-41" edge="1">
                    <mxGeometry relative="1" as="geometry">
                        <Array as="points">
                            <mxPoint x="190" y="280"/>
                        </Array>
                    </mxGeometry>
                </mxCell>
                <mxCell id="bllQlw7tOWOYWpfIj3jP-4" style="edgeStyle=orthogonalEdgeStyle;html=1;endArrow=none;endFill=0;" parent="CN391gvvRIoFLkOfb9pB-1" source="h-2Bb6POxhM6m2OBUG3G-40" target="h-2Bb6POxhM6m2OBUG3G-42" edge="1">
                    <mxGeometry relative="1" as="geometry">
                        <Array as="points">
                            <mxPoint x="190" y="490"/>
                            <mxPoint x="190" y="490"/>
                        </Array>
                    </mxGeometry>
                </mxCell>
                <mxCell id="bllQlw7tOWOYWpfIj3jP-9" style="edgeStyle=orthogonalEdgeStyle;html=1;endArrow=none;endFill=0;" parent="CN391gvvRIoFLkOfb9pB-1" source="h-2Bb6POxhM6m2OBUG3G-40" target="bllQlw7tOWOYWpfIj3jP-7" edge="1">
                    <mxGeometry relative="1" as="geometry">
                        <Array as="points">
                            <mxPoint x="190" y="560"/>
                            <mxPoint x="190" y="560"/>
                        </Array>
                    </mxGeometry>
                </mxCell>
                <mxCell id="bllQlw7tOWOYWpfIj3jP-10" style="edgeStyle=orthogonalEdgeStyle;html=1;endArrow=none;endFill=0;" parent="CN391gvvRIoFLkOfb9pB-1" source="h-2Bb6POxhM6m2OBUG3G-40" target="bllQlw7tOWOYWpfIj3jP-8" edge="1">
                    <mxGeometry relative="1" as="geometry">
                        <Array as="points">
                            <mxPoint x="190" y="630"/>
                        </Array>
                    </mxGeometry>
                </mxCell>
                <mxCell id="h-2Bb6POxhM6m2OBUG3G-40" value="Update Image" style="rounded=0;whiteSpace=wrap;html=1;aspect=fixed;" parent="CN391gvvRIoFLkOfb9pB-1" vertex="1">
                    <mxGeometry x="170" y="190" width="80" height="40" as="geometry"/>
                </mxCell>
                <mxCell id="bllQlw7tOWOYWpfIj3jP-2" style="edgeStyle=orthogonalEdgeStyle;html=1;endArrow=none;endFill=0;" parent="CN391gvvRIoFLkOfb9pB-1" source="h-2Bb6POxhM6m2OBUG3G-41" target="h-2Bb6POxhM6m2OBUG3G-50" edge="1">
                    <mxGeometry relative="1" as="geometry">
                        <Array as="points">
                            <mxPoint x="230" y="350"/>
                        </Array>
                    </mxGeometry>
                </mxCell>
                <mxCell id="bllQlw7tOWOYWpfIj3jP-3" style="edgeStyle=orthogonalEdgeStyle;html=1;endArrow=none;endFill=0;" parent="CN391gvvRIoFLkOfb9pB-1" source="h-2Bb6POxhM6m2OBUG3G-41" target="h-2Bb6POxhM6m2OBUG3G-51" edge="1">
                    <mxGeometry relative="1" as="geometry">
                        <Array as="points">
                            <mxPoint x="230" y="420"/>
                        </Array>
                    </mxGeometry>
                </mxCell>
                <mxCell id="h-2Bb6POxhM6m2OBUG3G-41" value="Image" style="rounded=0;whiteSpace=wrap;html=1;aspect=fixed;" parent="CN391gvvRIoFLkOfb9pB-1" vertex="1">
                    <mxGeometry x="210" y="260" width="80" height="40" as="geometry"/>
                </mxCell>
                <mxCell id="h-2Bb6POxhM6m2OBUG3G-42" value="Add Image button" style="rounded=0;whiteSpace=wrap;html=1;aspect=fixed;" parent="CN391gvvRIoFLkOfb9pB-1" vertex="1">
                    <mxGeometry x="210" y="470" width="80" height="40" as="geometry"/>
                </mxCell>
                <mxCell id="h-2Bb6POxhM6m2OBUG3G-50" value="Update image button" style="rounded=0;whiteSpace=wrap;html=1;aspect=fixed;" parent="CN391gvvRIoFLkOfb9pB-1" vertex="1">
                    <mxGeometry x="250" y="330" width="80" height="40" as="geometry"/>
                </mxCell>
                <mxCell id="h-2Bb6POxhM6m2OBUG3G-51" value="Delete Image button" style="rounded=0;whiteSpace=wrap;html=1;aspect=fixed;" parent="CN391gvvRIoFLkOfb9pB-1" vertex="1">
                    <mxGeometry x="250" y="400" width="80" height="40" as="geometry"/>
                </mxCell>
                <mxCell id="bllQlw7tOWOYWpfIj3jP-5" value="Cancel button" style="rounded=0;whiteSpace=wrap;html=1;aspect=fixed;" parent="CN391gvvRIoFLkOfb9pB-1" vertex="1">
                    <mxGeometry x="405" y="400" width="80" height="40" as="geometry"/>
                </mxCell>
                <mxCell id="bllQlw7tOWOYWpfIj3jP-7" value="Save button" style="rounded=0;whiteSpace=wrap;html=1;aspect=fixed;" parent="CN391gvvRIoFLkOfb9pB-1" vertex="1">
                    <mxGeometry x="210" y="540" width="80" height="40" as="geometry"/>
                </mxCell>
                <mxCell id="bllQlw7tOWOYWpfIj3jP-8" value="Cancel button" style="rounded=0;whiteSpace=wrap;html=1;aspect=fixed;" parent="CN391gvvRIoFLkOfb9pB-1" vertex="1">
                    <mxGeometry x="210" y="610" width="80" height="40" as="geometry"/>
                </mxCell>
                <mxCell id="C0V4QrhuHPCSRDy6MAaP-0" value="Save button" style="rounded=0;whiteSpace=wrap;html=1;aspect=fixed;" parent="CN391gvvRIoFLkOfb9pB-1" vertex="1">
                    <mxGeometry x="710" y="190" width="80" height="40" as="geometry"/>
                </mxCell>
                <mxCell id="C0V4QrhuHPCSRDy6MAaP-1" value="Cancel button" style="rounded=0;whiteSpace=wrap;html=1;aspect=fixed;" parent="CN391gvvRIoFLkOfb9pB-1" vertex="1">
                    <mxGeometry x="830" y="190" width="80" height="40" as="geometry"/>
                </mxCell>
            </root>
        </mxGraphModel>
    </diagram>
    <diagram id="obVl2Gj8-ImVBpKifgVi" name="Dashboard">
        <mxGraphModel dx="1230" dy="558" grid="1" gridSize="10" guides="1" tooltips="1" connect="1" arrows="1" fold="1" page="1" pageScale="1" pageWidth="850" pageHeight="1100" math="0" shadow="0">
            <root>
                <mxCell id="Oe2KC3N4qnUv1aMIsMql-0"/>
                <mxCell id="Oe2KC3N4qnUv1aMIsMql-1" parent="Oe2KC3N4qnUv1aMIsMql-0"/>
            </root>
        </mxGraphModel>
    </diagram>
    <diagram id="eObL3eQToZJVGOUSy2Nb" name="Homepage">
        <mxGraphModel dx="1230" dy="558" grid="1" gridSize="10" guides="1" tooltips="1" connect="1" arrows="1" fold="1" page="1" pageScale="1" pageWidth="850" pageHeight="1100" math="0" shadow="0">
            <root>
                <mxCell id="0"/>
                <mxCell id="1" parent="0"/>
                <mxCell id="10" value="" style="edgeStyle=none;html=1;rounded=1;" parent="1" source="2" target="9" edge="1">
                    <mxGeometry relative="1" as="geometry">
                        <Array as="points">
                            <mxPoint x="380" y="160"/>
                            <mxPoint x="120" y="160"/>
                        </Array>
                    </mxGeometry>
                </mxCell>
                <mxCell id="12" value="" style="edgeStyle=none;html=1;entryX=0.5;entryY=0;entryDx=0;entryDy=0;" parent="1" source="2" target="11" edge="1">
                    <mxGeometry relative="1" as="geometry"/>
                </mxCell>
                <mxCell id="14" value="" style="edgeStyle=none;html=1;" parent="1" source="2" target="13" edge="1">
                    <mxGeometry relative="1" as="geometry">
                        <Array as="points">
                            <mxPoint x="380" y="160"/>
                            <mxPoint x="640" y="160"/>
                        </Array>
                    </mxGeometry>
                </mxCell>
                <mxCell id="2" value="Homepage" style="rounded=0;whiteSpace=wrap;html=1;aspect=fixed;" parent="1" vertex="1">
                    <mxGeometry x="330" y="80" width="100" height="50" as="geometry"/>
                </mxCell>
                <mxCell id="16" value="" style="edgeStyle=none;html=1;entryX=0;entryY=0.5;entryDx=0;entryDy=0;exitX=0.25;exitY=1;exitDx=0;exitDy=0;" parent="1" source="9" target="15" edge="1">
                    <mxGeometry relative="1" as="geometry">
                        <Array as="points">
                            <mxPoint x="95" y="305"/>
                        </Array>
                    </mxGeometry>
                </mxCell>
                <mxCell id="9" value="Category Carousel" style="rounded=0;whiteSpace=wrap;html=1;aspect=fixed;" parent="1" vertex="1">
                    <mxGeometry x="70" y="200" width="100" height="50" as="geometry"/>
                </mxCell>
                <mxCell id="18" value="" style="edgeStyle=none;html=1;exitX=0.25;exitY=1;exitDx=0;exitDy=0;" parent="1" source="11" target="17" edge="1">
                    <mxGeometry relative="1" as="geometry">
                        <Array as="points">
                            <mxPoint x="355" y="305"/>
                        </Array>
                    </mxGeometry>
                </mxCell>
                <mxCell id="26" style="edgeStyle=none;rounded=1;html=1;entryX=0;entryY=0.5;entryDx=0;entryDy=0;exitX=0.25;exitY=1;exitDx=0;exitDy=0;" parent="1" source="11" target="19" edge="1">
                    <mxGeometry relative="1" as="geometry">
                        <Array as="points">
                            <mxPoint x="355" y="385"/>
                        </Array>
                    </mxGeometry>
                </mxCell>
                <mxCell id="11" value="Porduct List" style="rounded=0;whiteSpace=wrap;html=1;aspect=fixed;" parent="1" vertex="1">
                    <mxGeometry x="330" y="200" width="100" height="50" as="geometry"/>
                </mxCell>
                <mxCell id="30" value="" style="edgeStyle=none;rounded=1;html=1;exitX=0.25;exitY=1;exitDx=0;exitDy=0;" parent="1" source="13" target="29" edge="1">
                    <mxGeometry relative="1" as="geometry">
                        <Array as="points">
                            <mxPoint x="615" y="305"/>
                        </Array>
                    </mxGeometry>
                </mxCell>
                <mxCell id="32" style="edgeStyle=none;rounded=1;html=1;entryX=0;entryY=0.5;entryDx=0;entryDy=0;exitX=0.25;exitY=1;exitDx=0;exitDy=0;" parent="1" source="13" target="31" edge="1">
                    <mxGeometry relative="1" as="geometry">
                        <Array as="points">
                            <mxPoint x="615" y="385"/>
                        </Array>
                    </mxGeometry>
                </mxCell>
                <mxCell id="35" style="edgeStyle=none;rounded=1;html=1;exitX=0.25;exitY=1;exitDx=0;exitDy=0;entryX=0;entryY=0.5;entryDx=0;entryDy=0;" parent="1" source="13" target="33" edge="1">
                    <mxGeometry relative="1" as="geometry">
                        <Array as="points">
                            <mxPoint x="615" y="465"/>
                        </Array>
                    </mxGeometry>
                </mxCell>
                <mxCell id="13" value="Nav bar" style="rounded=0;whiteSpace=wrap;html=1;aspect=fixed;" parent="1" vertex="1">
                    <mxGeometry x="590" y="200" width="100" height="50" as="geometry"/>
                </mxCell>
                <mxCell id="15" value="Category" style="rounded=0;whiteSpace=wrap;html=1;aspect=fixed;" parent="1" vertex="1">
                    <mxGeometry x="120" y="280" width="100" height="50" as="geometry"/>
                </mxCell>
                <mxCell id="17" value="Porduct Card" style="rounded=0;whiteSpace=wrap;html=1;aspect=fixed;" parent="1" vertex="1">
                    <mxGeometry x="380" y="280" width="100" height="50" as="geometry"/>
                </mxCell>
                <mxCell id="19" value="More button" style="rounded=0;whiteSpace=wrap;html=1;aspect=fixed;" parent="1" vertex="1">
                    <mxGeometry x="380" y="360" width="100" height="50" as="geometry"/>
                </mxCell>
                <mxCell id="29" value="Nav Button" style="rounded=0;whiteSpace=wrap;html=1;aspect=fixed;" parent="1" vertex="1">
                    <mxGeometry x="640" y="280" width="100" height="50" as="geometry"/>
                </mxCell>
                <mxCell id="31" value="Search" style="rounded=0;whiteSpace=wrap;html=1;aspect=fixed;" parent="1" vertex="1">
                    <mxGeometry x="640" y="360" width="100" height="50" as="geometry"/>
                </mxCell>
                <mxCell id="33" value="Cart" style="rounded=0;whiteSpace=wrap;html=1;aspect=fixed;" parent="1" vertex="1">
                    <mxGeometry x="640" y="440" width="100" height="50" as="geometry"/>
                </mxCell>
            </root>
        </mxGraphModel>
    </diagram>
</mxfile>